<?xml version="1.0" encoding="UTF-8"?>
<svg version="1.1" xmlns="http://www.w3.org/2000/svg" width="700" height="507">
<path d="M0 0 C4.20570073 -0.63573444 6.21464714 0.07520934 9.68115234 2.60498047 C12.41921107 5.00371463 14.95888646 7.57606815 17.46630859 10.21289062 C19.04424017 11.86875073 20.65585679 13.48454092 22.27685547 15.09814453 C28.11130617 21.00812631 32.67284243 26.73156943 35.80810547 34.50830078 C36.26805908 35.50724365 36.26805908 35.50724365 36.73730469 36.52636719 C41.44450956 46.76618597 44.39921477 57.87182097 41.04296875 69.05859375 C39.57996851 71.96087616 38.50759938 72.6665899 35.64404297 74.12939453 C34.78077393 74.5829834 33.91750488 75.03657227 33.02807617 75.50390625 C32.08923584 75.97973145 31.15039551 76.45555664 30.18310547 76.94580078 C28.18261929 77.99578614 26.18398611 79.04930786 24.18701172 80.10595703 C23.14303223 80.65654785 22.09905273 81.20713867 21.0234375 81.77441406 C14.64720786 85.21283342 8.43101394 88.92815465 2.19433594 92.61157227 C0.79078857 93.43830444 0.79078857 93.43830444 -0.64111328 94.28173828 C-1.5533667 94.81984131 -2.46562012 95.35794434 -3.40551758 95.91235352 C-6.27862512 97.55797728 -9.19649136 99.09336722 -12.12939453 100.62939453 C-16.00430528 102.7332624 -18.83249021 104.61153888 -21.50439453 108.19580078 C-22.59494141 109.62859375 -22.59494141 109.62859375 -23.70751953 111.09033203 C-24.53684761 112.22877951 -25.36486544 113.3681821 -26.19189453 114.50830078 C-27.22730681 115.90881432 -28.2638422 117.30849797 -29.30126953 118.70751953 C-31.67196372 121.91251768 -34.02976633 125.12662538 -36.38330078 128.34423828 C-40.25366447 133.61644229 -44.21491566 138.81628067 -48.19189453 144.00830078 C-53.43255721 150.85163197 -58.59897849 157.74182592 -63.69189453 164.69580078 C-70.12128525 173.45350484 -76.45228765 182.00018731 -84.26611328 189.58642578 C-86.13363493 191.45015936 -87.85399354 193.37756192 -89.56689453 195.38330078 C-98.76903374 205.94111229 -108.59196752 213.75680729 -120.19189453 221.50830078 C-120.7795459 221.9037207 -121.36719727 222.29914063 -121.97265625 222.70654297 C-125.99219256 225.39731676 -130.07933779 227.96389097 -134.19189453 230.50830078 C-134.9656543 230.99411621 -135.73941406 231.47993164 -136.53662109 231.98046875 C-147.26403335 238.68561735 -158.10794286 244.65189884 -169.69189453 249.75830078 C-170.74803955 250.22413574 -171.80418457 250.6899707 -172.89233398 251.16992188 C-180.91490276 254.60269619 -188.07918122 255.76676352 -196.75439453 256.00830078 C-198.01026367 256.08951172 -198.01026367 256.08951172 -199.29150391 256.17236328 C-205.3392278 256.30643792 -205.3392278 256.30643792 -207.89453125 253.91455078 C-209.28173828 251.97705078 -209.28173828 251.97705078 -211.19189453 248.50830078 C-216.57081117 249.08008914 -221.065435 250.44808973 -226.09033203 252.39501953 C-234.5894389 255.52210396 -242.87139926 257.10633383 -251.81689453 258.32080078 C-253.45518652 258.55482763 -255.09328138 258.79023765 -256.73120117 259.02685547 C-259.45052477 259.41805058 -262.17014951 259.80626949 -264.89094543 260.18710327 C-272.3850934 261.23641394 -279.86533063 262.36617233 -287.34518623 263.51254845 C-314.67305975 267.6894097 -341.80315568 271.53940435 -369.48486328 272.28955078 C-376.74117351 272.47768782 -376.74117351 272.47768782 -383.99267578 272.78955078 C-384.90831299 272.83144531 -385.8239502 272.87333984 -386.76733398 272.91650391 C-393.08465531 274.45846211 -396.32137539 282.04180182 -399.50439453 287.19580078 C-400.06707031 288.05625 -400.62974609 288.91669922 -401.20947266 289.80322266 C-401.73605469 290.65851563 -402.26263672 291.51380859 -402.80517578 292.39501953 C-403.28768799 293.16031982 -403.7702002 293.92562012 -404.26733398 294.71411133 C-406.68744189 302.02811581 -403.38846812 309.61887879 -400.77392578 316.48876953 C-400.24639458 317.90575386 -400.24639458 317.90575386 -399.70820618 319.35136414 C-395.34929088 330.9410113 -390.61231084 342.3802386 -385.87939453 353.82080078 C-384.53529511 357.0746687 -383.19259668 360.32908898 -381.85346985 363.58500671 C-381.03062341 365.58528122 -380.2049695 367.58440422 -379.37590027 369.58210754 C-372.62515298 385.97950354 -372.62515298 385.97950354 -373.34423828 392.52001953 C-373.46395996 393.62909668 -373.58368164 394.73817383 -373.70703125 395.88085938 C-373.86703613 397.07791504 -374.02704102 398.2749707 -374.19189453 399.50830078 C-374.27658997 400.15156311 -374.3612854 400.79482544 -374.44854736 401.45758057 C-378.90827696 434.6450754 -378.90827696 434.6450754 -387.10449219 447.60791016 C-388.38019366 449.83738035 -389.34335617 452.12090947 -390.32861328 454.49267578 C-396.08892566 467.87420909 -396.08892566 467.87420909 -402.04736328 470.82080078 C-415.66925695 475.78941032 -431.436019 473.61415465 -445.64224243 472.65270996 C-457.76189216 471.84789678 -469.85570607 471.29645921 -482.00439453 471.25830078 C-483.11443848 471.24927734 -484.22448242 471.24025391 -485.36816406 471.23095703 C-488.98255859 471.24362615 -492.58043004 471.3611546 -496.19189453 471.50830078 C-497.29919418 471.5365947 -497.29919418 471.5365947 -498.42886353 471.56546021 C-515.93326964 472.10543215 -531.98800105 477.08264246 -548.55516052 482.26194763 C-552.27595355 483.41893048 -556.00522056 484.54790227 -559.73388672 485.67919922 C-571.35460213 489.21164295 -582.95626934 492.80454047 -594.54820251 496.43031311 C-597.9309995 497.48516174 -601.31787811 498.52640824 -604.70578003 499.56472778 C-606.84976242 500.22972427 -608.98462027 500.91916038 -611.11987305 501.61157227 C-622.95459876 505.33495771 -634.55891296 505.85707604 -646.56689453 502.57080078 C-647.30166016 502.38839844 -648.03642578 502.20599609 -648.79345703 502.01806641 C-654.01055719 500.68963813 -654.01055719 500.68963813 -655.19189453 499.50830078 C-656.66702848 485.96111951 -656.2078882 473.39387066 -649.27709961 461.4621582 C-648.13767955 459.48744806 -648.13767955 459.48744806 -647.20629883 457.22045898 C-642.33669528 446.70421916 -633.44566299 439.25942618 -625.25439453 431.32080078 C-622.93832521 429.05504398 -620.62591697 426.78564481 -618.31578064 424.51383972 C-616.88635745 423.11038831 -615.45300079 421.71092679 -614.01490784 420.31636047 C-610.70636551 417.08899823 -607.55234608 413.81926791 -604.55053711 410.30297852 C-601.80703273 407.09997213 -598.84808482 404.58934834 -595.54345703 401.96142578 C-592.38547026 398.82856888 -591.20600856 397.53315185 -591.14404297 393.03369141 C-592.0232664 388.97525461 -593.189836 385.16831529 -594.56689453 381.25830078 C-595.22337061 379.26352975 -595.86138582 377.26508358 -596.4803772 375.25836182 C-597.05348968 373.42315166 -597.67459982 371.603127 -598.29882812 369.78466797 C-602.01433553 354.66964206 -596.74917969 339.43241552 -593.16455078 324.78955078 C-592.53274179 322.16608351 -591.90577071 319.54146653 -591.27867126 316.91687012 C-589.79330117 310.7121379 -588.29201193 304.51137653 -586.78467602 298.3119483 C-584.93999695 290.7218163 -583.11553319 283.12685408 -581.29150391 275.53173828 C-579.36644448 267.51719208 -577.43832367 259.5034506 -575.49258423 251.49389648 C-572.75544261 240.21796808 -570.03591414 228.94202391 -567.48828125 217.62158203 C-567.08778745 215.85994289 -566.68711432 214.0983445 -566.28623962 212.33679199 C-565.58448216 209.2509382 -564.90485123 206.16154239 -564.24024963 203.06750488 C-561.66845441 191.50871066 -557.9046977 178.95231257 -547.75439453 171.94580078 C-546.53412582 171.06639391 -545.31544224 170.18478437 -544.09814453 169.30126953 C-543.46521484 168.85444824 -542.83228516 168.40762695 -542.18017578 167.94726562 C-538.59669736 165.35381992 -535.1839524 162.55015581 -531.75439453 159.75830078 C-531.1047876 159.23937256 -530.45518066 158.72044434 -529.78588867 158.18579102 C-528.51960424 157.16291658 -527.26697101 156.12290341 -526.02880859 155.06616211 C-524.81957599 154.04062871 -523.57612234 153.05394229 -522.30029297 152.11254883 C-515.23765595 146.29609405 -514.53964921 137.1943191 -512.90429688 128.67016602 C-510.5632792 116.76749467 -510.5632792 116.76749467 -507.37744141 113.84228516 C-505.01076356 112.77200409 -502.70905879 112.14541856 -500.19189453 111.50830078 C-498.27190786 110.73487315 -496.36102475 109.93863463 -494.45751953 109.12548828 C-470.18738185 99.50881736 -445.1122356 92.47226745 -420.052145 85.26065445 C-411.95140594 82.92799919 -403.89267874 80.50356532 -395.87158203 77.91064453 C-394.21834792 77.38480813 -392.56495293 76.85947716 -390.91137695 76.3347168 C-388.7090793 75.63554302 -386.51271746 74.9290264 -384.32705688 74.17941284 C-361.7135686 66.42764821 -336.59118318 71.0513037 -313.26312256 73.1730957 C-307.13482794 73.72805999 -301.00472912 74.26301559 -294.87495422 74.80133438 C-292.62480883 74.999516 -290.37484055 75.19962713 -288.12487793 75.39987183 C-278.74131191 76.22991381 -269.35677352 76.9386055 -259.95751953 77.57080078 C-250.29027946 78.2269237 -240.77090193 79.17374548 -231.19189453 80.63330078 C-214.2173104 83.85196556 -214.2173104 83.85196556 -198.19189453 79.50830078 C-196.58006279 77.82066508 -195.13611528 76.10168736 -193.74658203 74.22705078 C-188.61760167 68.55682124 -181.39192263 68.16798101 -174.25439453 67.00830078 C-172.96073975 66.79326904 -171.66708496 66.5782373 -170.33422852 66.35668945 C-157.55737592 64.31599981 -144.70394405 63.332098 -131.79956055 62.49658203 C-131.01270874 62.44354416 -130.22585693 62.39050629 -129.41516113 62.33586121 C-127.94801071 62.2382729 -126.48039592 62.14731738 -125.0123291 62.06465149 C-118.43559424 61.6294088 -112.85610083 60.18399736 -107.20751953 56.77783203 C-105.8259668 55.95605469 -105.8259668 55.95605469 -104.41650391 55.11767578 C-103.43488281 54.52470703 -102.45326172 53.93173828 -101.44189453 53.32080078 C-92.60236197 48.06840404 -83.6994925 42.96695686 -74.69189453 38.00830078 C-66.08531125 33.26013727 -57.54269774 28.42367564 -49.06689453 23.44580078 C-45.10994713 21.13092383 -41.15100909 18.81946864 -37.19189453 16.50830078 C-36.09941406 15.86844238 -35.00693359 15.22858398 -33.88134766 14.56933594 C-30.53497522 12.61728535 -27.17749755 10.68572743 -23.81689453 8.75830078 C-22.80095215 8.16138428 -21.78500977 7.56446777 -20.73828125 6.94946289 C-13.6855339 2.9366122 -7.70117685 1.78590446 0 0 Z M-11.74267578 25.29736328 C-12.8211377 25.90201416 -13.89959961 26.50666504 -15.01074219 27.12963867 C-16.17546816 27.79722048 -17.34001434 28.46511605 -18.50439453 29.13330078 C-19.71799365 29.81952876 -20.93203021 30.50498364 -22.14648438 31.18969727 C-30.90392506 36.14174927 -39.59547985 41.20882503 -48.26928711 46.30566406 C-56.37948754 51.06441492 -64.5737026 55.66109735 -72.79077148 60.23217773 C-81.45367887 65.06400488 -90.02925201 70.03721948 -98.57861328 75.06689453 C-99.51962891 75.61990234 -100.46064453 76.17291016 -101.43017578 76.74267578 C-102.25557861 77.22961914 -103.08098145 77.7165625 -103.93139648 78.21826172 C-107.56162532 80.28998967 -110.30974884 81.72716297 -114.51611328 82.07080078 C-115.36705566 82.14419678 -116.21799805 82.21759277 -117.09472656 82.29321289 C-118.01366699 82.36419189 -118.93260742 82.4351709 -119.87939453 82.50830078 C-120.84474121 82.59023682 -121.81008789 82.67217285 -122.8046875 82.7565918 C-128.03422672 83.19524967 -133.26664406 83.58974538 -138.50048828 83.97314453 C-148.54521973 84.71800334 -158.53507691 85.54428155 -168.50439453 87.00830078 C-169.3282666 87.12681396 -170.15213867 87.24532715 -171.00097656 87.36743164 C-177.76705376 88.4168411 -177.76705376 88.4168411 -182.94189453 92.50830078 C-184.36856084 94.39788434 -184.36856084 94.39788434 -184.19189453 96.50830078 C-184.88283203 96.78416016 -185.57376953 97.06001953 -186.28564453 97.34423828 C-188.29143686 98.1476336 -190.29114743 98.96632282 -192.28564453 99.79736328 C-204.2629077 104.49486787 -214.13462517 103.86486037 -226.66845703 102.29125977 C-234.65369552 101.33733757 -242.65320976 101.11163556 -250.68896484 100.93823242 C-251.70571289 100.90979248 -252.72246094 100.88135254 -253.77001953 100.85205078 C-254.67139648 100.83335938 -255.57277344 100.81466797 -256.50146484 100.79541016 C-259.19189453 100.50830078 -259.19189453 100.50830078 -261.81103516 99.55044556 C-265.88354567 98.29510037 -269.74457072 97.90261313 -273.97607422 97.546875 C-274.8387088 97.46855438 -275.70134338 97.39023376 -276.59011841 97.30953979 C-279.43074885 97.05354128 -282.27217515 96.80803636 -285.11376953 96.56298828 C-287.09910524 96.38699371 -289.08439518 96.21048219 -291.06964111 96.03347778 C-295.22849561 95.66424637 -299.38774513 95.29997747 -303.54736328 94.93945312 C-308.85824569 94.47893445 -314.16815559 94.00816368 -319.47782516 93.53388786 C-323.57837223 93.16842361 -327.67930413 92.8074414 -331.78037262 92.44787979 C-333.73713379 92.27598074 -335.69379605 92.10295164 -337.65035248 91.92873764 C-340.39658613 91.68509522 -343.14326405 91.44725259 -345.89013672 91.2109375 C-346.68632416 91.13927368 -347.4825116 91.06760986 -348.30282593 90.99377441 C-357.4154412 90.22370612 -365.41847506 90.11393399 -374.20800781 92.85986328 C-375.0487384 93.11035934 -375.88946899 93.36085541 -376.75567627 93.61894226 C-379.51202219 94.44387163 -382.26196919 95.28825251 -385.01220703 96.13330078 C-386.95790881 96.72058671 -388.90395055 97.30674737 -390.85031128 97.8918457 C-394.92947198 99.12108733 -399.00580308 100.35915437 -403.08007812 101.60449219 C-408.22909832 103.17830754 -413.38238544 104.73749038 -418.53757572 106.29096127 C-438.13851583 112.19861723 -457.73147711 118.11327052 -477.08811951 124.78739929 C-479.14729394 125.49301748 -481.2125226 126.17741126 -483.28027344 126.85742188 C-488.55780455 128.55216319 -488.55780455 128.55216319 -492.42236328 132.28564453 C-493.3032976 134.6869731 -493.74770508 136.98770194 -494.19189453 139.50830078 C-494.79496373 142.03738827 -495.41327815 144.55498263 -496.06689453 147.07080078 C-496.23600342 147.72419434 -496.4051123 148.37758789 -496.5793457 149.05078125 C-499.883171 161.25070782 -508.45322818 168.47972171 -518.31689453 175.75830078 C-520.41257786 177.30991248 -522.49381135 178.87097366 -524.54664612 180.47900391 C-526.43551357 181.92804468 -528.36748717 183.32158824 -530.32530212 184.67602539 C-540.27915513 191.88787213 -542.80205947 198.72869364 -545.12548828 210.49267578 C-545.50839558 212.22727993 -545.89664738 213.96071113 -546.28965759 215.6930542 C-547.15260439 219.5221711 -547.98922819 223.35587796 -548.81072998 227.1940918 C-550.2706893 233.94932819 -551.86692064 240.66942537 -553.48144531 247.38916016 C-553.77001593 248.59100197 -554.05858654 249.79284378 -554.35590172 251.03110504 C-554.95022542 253.50541518 -555.54473471 255.97968075 -556.13942337 258.4539032 C-557.64762469 264.74979025 -559.13366052 271.05088564 -560.61962891 277.35205078 C-560.91717386 278.61310387 -561.21471882 279.87415695 -561.52128029 281.17342377 C-562.12641196 283.73819551 -562.7314601 286.30298696 -563.33642578 288.86779785 C-564.88740166 295.44108936 -566.44105838 302.01374711 -567.99462891 308.58642578 C-569.73686089 315.95740095 -571.47889745 323.32842095 -573.21852112 330.70001221 C-573.60968864 332.35708694 -573.60968864 332.35708694 -574.00875854 334.04763794 C-574.49442288 336.10516343 -574.9798841 338.16273688 -575.46510315 340.22036743 C-575.67920837 341.12727325 -575.8933136 342.03417908 -576.11390686 342.96856689 C-576.29910417 343.75360218 -576.48430147 344.53863747 -576.67511082 345.3474617 C-577.0178791 346.78068625 -577.37273768 348.21107645 -577.73998165 349.63822556 C-580.38796421 360.59592735 -576.68332954 371.13296411 -573.60205078 381.56689453 C-572.53237771 385.20432614 -571.71380409 388.74620274 -571.19189453 392.50830078 C-570.97404297 393.44287109 -570.75619141 394.37744141 -570.53173828 395.34033203 C-569.92346587 399.84627231 -569.86134271 403.56706153 -572.47297668 407.37736511 C-574.26556876 409.42337804 -576.13492279 411.35105743 -578.06298828 413.27001953 C-578.7733725 414.00015259 -579.48375671 414.73028564 -580.21566772 415.48254395 C-582.5234668 417.84262731 -584.85437409 420.17767276 -587.19189453 422.50830078 C-588.35125015 423.67070786 -588.35125015 423.67070786 -589.5340271 424.8565979 C-595.92436912 431.25807857 -602.35438061 437.61951166 -608.81005859 443.95507812 C-611.23846154 446.34098641 -613.65716083 448.73639911 -616.07470703 451.13330078 C-616.80287628 451.84284912 -617.53104553 452.55239746 -618.28128052 453.28344727 C-624.83559447 459.80488566 -629.8954891 466.75661718 -633.12939453 475.44580078 C-633.55091797 476.54794922 -633.97244141 477.65009766 -634.40673828 478.78564453 C-635.50636342 481.44397733 -635.50636342 481.44397733 -634.19189453 483.50830078 C-624.0217471 484.37938054 -615.17819987 481.19900834 -605.57861328 478.25048828 C-603.76028617 477.70311512 -601.94157804 477.15700627 -600.12251282 476.61209106 C-595.34134977 475.17639413 -590.56523333 473.72458946 -585.7901001 472.26898193 C-580.05282184 470.52321992 -574.30985721 468.79628395 -568.56772327 467.066576 C-564.08429616 465.71563626 -559.60169685 464.36216602 -555.12174988 462.99972534 C-546.37521978 460.34259803 -537.61619703 457.73161888 -528.83422852 455.19384766 C-527.96334689 454.93959959 -527.09246527 454.68535152 -526.19519329 454.42339897 C-520.00734691 452.64886492 -514.01043875 451.46690825 -507.56689453 451.13330078 C-506.08443237 451.0351709 -506.08443237 451.0351709 -504.57202148 450.93505859 C-484.89806806 449.77060946 -465.31185348 450.47892812 -445.67114258 451.79638672 C-438.62397019 452.26331755 -431.57856609 452.63946894 -424.51611328 452.75830078 C-423.2524292 452.78408203 -421.98874512 452.80986328 -420.68676758 452.83642578 C-416.14572519 452.41007853 -412.80518366 451.19264345 -409.61206055 447.85888672 C-399.13487718 431.09363873 -389.50077939 406.47647239 -393.86212158 386.42724609 C-397.54996363 373.36177723 -403.38709691 361.0253098 -409.27798462 348.83293152 C-413.23459001 340.62045076 -416.44005187 332.24922366 -419.4329071 323.64637756 C-420.51807184 320.58945536 -421.67802822 317.56242669 -422.84185791 314.534729 C-425.99400686 306.17370461 -428.31570315 298.82959501 -424.52001953 290.32470703 C-422.18924871 285.26654917 -419.32822492 280.62208589 -416.31689453 275.94580078 C-415.81287109 275.14722656 -415.30884766 274.34865234 -414.78955078 273.52587891 C-403.33529991 255.5535441 -403.33529991 255.5535441 -392.19189453 252.50830078 C-389.1036712 252.05708592 -386.0439123 251.9322963 -382.92626953 251.84814453 C-382.0527887 251.81274063 -381.17930786 251.77733673 -380.27935791 251.74085999 C-377.50051028 251.62994531 -374.72146398 251.53666014 -371.94189453 251.44580078 C-369.20535893 251.3488696 -366.46910362 251.24776084 -363.73297119 251.14002991 C-362.04096181 251.07416835 -360.34869869 251.01429849 -358.65618896 250.96287537 C-342.47265574 250.36196789 -326.37314214 248.10281155 -310.35595703 245.82861328 C-308.53478957 245.57194247 -306.71361218 245.3153421 -304.89242554 245.05880737 C-301.11567479 244.52561876 -297.33943667 243.9889528 -293.56347656 243.45019531 C-288.76438013 242.76612747 -283.96356234 242.09504584 -279.16221046 241.42701912 C-275.41539608 240.90351133 -271.66989825 240.371011 -267.92469406 239.83611679 C-266.15601127 239.58496853 -264.38687716 239.33697441 -262.61726761 239.09244156 C-246.72315033 236.89004783 -232.20115725 232.68226061 -217.12353516 227.15673828 C-216.16511719 226.81384766 -215.20669922 226.47095703 -214.21923828 226.11767578 C-213.37095459 225.80797852 -212.5226709 225.49828125 -211.64868164 225.17919922 C-209.00486305 224.4572263 -206.91808117 224.22801165 -204.19189453 224.50830078 C-202.00297288 226.95499964 -200.33764419 229.57239513 -198.54736328 232.32080078 C-196.25847558 234.87304751 -196.25847558 234.87304751 -192.41455078 234.98486328 C-188.12195651 234.7002494 -184.40753057 233.48388882 -180.44189453 231.88330078 C-179.81541016 231.64740234 -179.18892578 231.41150391 -178.54345703 231.16845703 C-168.19743108 227.14958241 -158.51351993 221.72919732 -149.06689453 215.94580078 C-148.07987549 215.34227783 -147.09285645 214.73875488 -146.07592773 214.11694336 C-129.91842071 204.11765425 -114.94076561 193.31068893 -102.38720703 178.94189453 C-100.35123126 176.68493207 -98.22664654 174.64134924 -96.00439453 172.57080078 C-90.24766462 166.88378905 -85.72681584 160.28039586 -81.00048828 153.74267578 C-77.15529268 148.42699443 -73.18510534 143.21325449 -69.19189453 138.00830078 C-64.69833314 132.13745419 -60.23123849 126.25103597 -55.85473633 120.29223633 C-54.70461884 118.72809608 -53.54851577 117.16833943 -52.38647461 115.61303711 C-49.40502178 111.60836872 -46.56091189 107.56990579 -43.86376953 103.36767578 C-34.92079733 89.84179642 -24.88726076 83.27153801 -10.47119141 76.16259766 C-5.01758049 73.41143122 0.25976754 70.35722792 5.55810547 67.32080078 C7.42755399 66.26420383 9.29732097 65.20817005 11.16748047 64.15283203 C14.41152125 62.31957959 17.61844859 60.43470977 20.80810547 58.50830078 C20.02705529 46.40202302 16.08593891 38.77860063 7.37060547 30.38330078 C6.61972656 29.61759766 5.86884766 28.85189453 5.09521484 28.06298828 C1.34502505 24.03530431 1.34502505 24.03530431 -3.59912109 22.12353516 C-6.80071234 22.59864889 -8.92546719 23.70176346 -11.74267578 25.29736328 Z " fill="#D9251D" transform="translate(656.19189453125,0.49169921875)"/>
</svg>
