<svg width="71" height="76" viewBox="0 0 71 76" fill="none" xmlns="http://www.w3.org/2000/svg">
<rect width="71" height="76" fill="#EFEFEF"/>
<path d="M33 16H38V35H33V16Z" fill="#292929"/>
<path d="M29 25H33V30H29V25Z" fill="#292929"/>
<path d="M38 25H43V30H38V25Z" fill="#292929"/>
<path d="M19 35H53V40H19V35Z" fill="#292929"/>
<path d="M29 44H33V49H29V44Z" fill="#292929"/>
<path d="M38 44H43V49H38V44Z" fill="#292929"/>
<path d="M29 40H43V44H29V40Z" fill="#292929"/>
<path d="M19 54H24V59H19V54Z" fill="#292929"/>
<path d="M48 54H53V59H48V54Z" fill="#292929"/>
<path d="M43 40H48V54H43V40Z" fill="#292929"/>
<path d="M24 40H29V54H24V40Z" fill="#292929"/>
<path d="M14 30H33V35H14V30Z" fill="#292929"/>
<path d="M38 30H57V35H38V30Z" fill="#292929"/>
</svg>
