<svg width="314" height="395" viewBox="0 0 314 395" fill="none" xmlns="http://www.w3.org/2000/svg">
<g clip-path="url(#clip0_96_87970)">
<rect x="3" y="3" width="302" height="384" fill="#ECECEC" stroke="#A5A5A5" stroke-width="6"/>
<rect x="308" width="6" height="390" fill="#949494"/>
<rect y="390" width="314" height="5" fill="#949494"/>
<rect x="6" y="6" width="296" height="10" fill="#C6C6C6"/>
<rect x="6" y="16" width="296" height="4" fill="#D6D6D6"/>
<rect x="6" y="20" width="5" height="5" fill="#D6D6D6"/>
<rect x="11" y="25" width="5" height="5" fill="#D6D6D6"/>
<rect x="125" y="25" width="5" height="5" fill="#D6D6D6"/>
<rect x="21" y="25" width="4" height="5" fill="#D6D6D6"/>
<rect x="135" y="25" width="4" height="5" fill="#D6D6D6"/>
<rect x="40" y="25" width="4" height="5" fill="#D6D6D6"/>
<rect x="154" y="25" width="4" height="5" fill="#D6D6D6"/>
<rect x="59" y="25" width="4" height="5" fill="#D6D6D6"/>
<rect x="173" y="25" width="4" height="5" fill="#D6D6D6"/>
<rect x="71" y="25" width="4" height="5" fill="#D6D6D6"/>
<rect x="185" y="25" width="4" height="5" fill="#D6D6D6"/>
<rect x="30" y="25" width="5" height="5" fill="#D6D6D6"/>
<rect x="144" y="25" width="5" height="5" fill="#D6D6D6"/>
<rect x="49" y="25" width="5" height="5" fill="#D6D6D6"/>
<rect x="163" y="25" width="5" height="5" fill="#D6D6D6"/>
<rect x="68" y="25" width="5" height="5" fill="#D6D6D6"/>
<rect x="182" y="25" width="5" height="5" fill="#D6D6D6"/>
<rect x="78" y="25" width="5" height="5" fill="#D6D6D6"/>
<rect x="192" y="25" width="5" height="5" fill="#D6D6D6"/>
<rect x="87" y="25" width="5" height="5" fill="#D6D6D6"/>
<rect x="201" y="25" width="5" height="5" fill="#D6D6D6"/>
<rect x="106" y="25" width="5" height="5" fill="#D6D6D6"/>
<rect x="220" y="25" width="5" height="5" fill="#D6D6D6"/>
<rect x="97" y="25" width="5" height="5" fill="#D6D6D6"/>
<rect x="211" y="25" width="5" height="5" fill="#D6D6D6"/>
<rect x="240" y="25" width="5" height="5" fill="#D6D6D6"/>
<rect x="249" y="25" width="5" height="5" fill="#D6D6D6"/>
<rect x="259" y="25" width="5" height="5" fill="#D6D6D6"/>
<rect x="273" y="25" width="5" height="5" fill="#D6D6D6"/>
<rect x="283" y="25" width="5" height="5" fill="#D6D6D6"/>
<rect x="292" y="25" width="5" height="5" fill="#D6D6D6"/>
<rect x="116" y="25" width="5" height="5" fill="#D6D6D6"/>
<rect x="230" y="25" width="5" height="5" fill="#D6D6D6"/>
<rect x="83" y="25" width="4" height="5" fill="#E7E7E7"/>
<rect x="197" y="25" width="4" height="5" fill="#E7E7E7"/>
<rect x="102" y="25" width="4" height="5" fill="#E7E7E7"/>
<rect x="216" y="25" width="4" height="5" fill="#E7E7E7"/>
<rect x="245" y="25" width="4" height="5" fill="#E7E7E7"/>
<rect x="121" y="25" width="4" height="5" fill="#E7E7E7"/>
<rect x="235" y="25" width="5" height="5" fill="#E7E7E7"/>
<rect x="254" y="25" width="5" height="5" fill="#E7E7E7"/>
<rect x="278" y="25" width="5" height="5" fill="#E7E7E7"/>
<rect x="288" y="25" width="4" height="5" fill="#E7E7E7"/>
<rect x="297" y="25" width="5" height="5" fill="#E7E7E7"/>
<rect x="264" y="25" width="9" height="5" fill="#E7E7E7"/>
<rect x="16" y="20" width="5" height="5" fill="#D6D6D6"/>
<rect x="130" y="20" width="5" height="5" fill="#D6D6D6"/>
<rect x="25" y="20" width="5" height="5" fill="#D6D6D6"/>
<rect x="139" y="20" width="5" height="5" fill="#D6D6D6"/>
<rect x="35" y="20" width="5" height="5" fill="#D6D6D6"/>
<rect x="149" y="20" width="5" height="5" fill="#D6D6D6"/>
<rect x="54" y="20" width="5" height="5" fill="#D6D6D6"/>
<rect x="168" y="20" width="5" height="5" fill="#D6D6D6"/>
<rect x="63" y="20" width="5" height="5" fill="#D6D6D6"/>
<rect x="177" y="20" width="5" height="5" fill="#D6D6D6"/>
<rect x="73" y="20" width="5" height="5" fill="#D6D6D6"/>
<rect x="187" y="20" width="5" height="5" fill="#D6D6D6"/>
<rect x="92" y="20" width="5" height="5" fill="#D6D6D6"/>
<rect x="206" y="20" width="5" height="5" fill="#D6D6D6"/>
<rect x="111" y="20" width="5" height="5" fill="#D6D6D6"/>
<rect x="225" y="20" width="5" height="5" fill="#D6D6D6"/>
<rect x="44" y="20" width="5" height="5" fill="#D6D6D6"/>
<rect x="158" y="20" width="5" height="5" fill="#D6D6D6"/>
<rect x="11" y="20" width="5" height="5" fill="#E7E7E7"/>
<rect x="125" y="20" width="5" height="5" fill="#E7E7E7"/>
<rect x="21" y="20" width="4" height="5" fill="#E7E7E7"/>
<rect x="135" y="20" width="4" height="5" fill="#E7E7E7"/>
<rect x="40" y="20" width="4" height="5" fill="#E7E7E7"/>
<rect x="154" y="20" width="4" height="5" fill="#E7E7E7"/>
<rect x="59" y="20" width="4" height="5" fill="#E7E7E7"/>
<rect x="173" y="20" width="4" height="5" fill="#E7E7E7"/>
<rect x="30" y="20" width="5" height="5" fill="#E7E7E7"/>
<rect x="144" y="20" width="5" height="5" fill="#E7E7E7"/>
<rect x="49" y="20" width="5" height="5" fill="#E7E7E7"/>
<rect x="163" y="20" width="5" height="5" fill="#E7E7E7"/>
<rect x="68" y="20" width="5" height="5" fill="#E7E7E7"/>
<rect x="182" y="20" width="5" height="5" fill="#E7E7E7"/>
<rect x="78" y="20" width="5" height="5" fill="#E7E7E7"/>
<rect x="192" y="20" width="5" height="5" fill="#E7E7E7"/>
<rect x="87" y="20" width="5" height="5" fill="#E7E7E7"/>
<rect x="201" y="20" width="5" height="5" fill="#E7E7E7"/>
<rect x="106" y="20" width="5" height="5" fill="#E7E7E7"/>
<rect x="220" y="20" width="5" height="5" fill="#E7E7E7"/>
<rect x="97" y="20" width="5" height="5" fill="#E7E7E7"/>
<rect x="211" y="20" width="5" height="5" fill="#E7E7E7"/>
<rect x="240" y="20" width="5" height="5" fill="#E7E7E7"/>
<rect x="249" y="20" width="5" height="5" fill="#E7E7E7"/>
<rect x="259" y="20" width="5" height="5" fill="#E7E7E7"/>
<rect x="273" y="20" width="5" height="5" fill="#E7E7E7"/>
<rect x="283" y="20" width="5" height="5" fill="#E7E7E7"/>
<rect x="292" y="20" width="5" height="5" fill="#E7E7E7"/>
<rect x="116" y="20" width="5" height="5" fill="#E7E7E7"/>
<rect x="230" y="20" width="5" height="5" fill="#E7E7E7"/>
<rect x="83" y="20" width="4" height="5" fill="#D6D6D6"/>
<rect x="197" y="20" width="4" height="5" fill="#D6D6D6"/>
<rect x="102" y="20" width="4" height="5" fill="#D6D6D6"/>
<rect x="216" y="20" width="4" height="5" fill="#D6D6D6"/>
<rect x="245" y="20" width="4" height="5" fill="#D6D6D6"/>
<rect x="121" y="20" width="4" height="5" fill="#D6D6D6"/>
<rect x="235" y="20" width="5" height="5" fill="#D6D6D6"/>
<rect x="254" y="20" width="5" height="5" fill="#D6D6D6"/>
<rect x="278" y="20" width="5" height="5" fill="#D6D6D6"/>
<rect x="288" y="20" width="4" height="5" fill="#D6D6D6"/>
<rect x="297" y="20" width="5" height="5" fill="#D6D6D6"/>
<rect x="264" y="20" width="9" height="5" fill="#D6D6D6"/>
<rect x="6" y="25" width="5" height="5" fill="#E7E7E7"/>
<rect x="16" y="25" width="5" height="5" fill="#E7E7E7"/>
<rect x="130" y="25" width="5" height="5" fill="#E7E7E7"/>
<rect x="25" y="25" width="5" height="5" fill="#E7E7E7"/>
<rect x="139" y="25" width="5" height="5" fill="#E7E7E7"/>
<rect x="35" y="25" width="5" height="5" fill="#E7E7E7"/>
<rect x="149" y="25" width="5" height="5" fill="#E7E7E7"/>
<rect x="54" y="25" width="5" height="5" fill="#E7E7E7"/>
<rect x="168" y="25" width="5" height="5" fill="#E7E7E7"/>
<rect x="63" y="25" width="5" height="5" fill="#E7E7E7"/>
<rect x="177" y="25" width="5" height="5" fill="#E7E7E7"/>
<rect x="73" y="25" width="5" height="5" fill="#E7E7E7"/>
<rect x="187" y="25" width="5" height="5" fill="#E7E7E7"/>
<rect x="92" y="25" width="5" height="5" fill="#E7E7E7"/>
<rect x="206" y="25" width="5" height="5" fill="#E7E7E7"/>
<rect x="111" y="25" width="5" height="5" fill="#E7E7E7"/>
<rect x="225" y="25" width="5" height="5" fill="#E7E7E7"/>
<rect x="44" y="25" width="5" height="5" fill="#E7E7E7"/>
<rect x="158" y="25" width="5" height="5" fill="#E7E7E7"/>
<rect x="6" y="40" width="5" height="4.5" fill="#E7E7E7"/>
<rect x="11" y="44.5" width="5" height="4.5" fill="#E7E7E7"/>
<rect x="125" y="44.5" width="5" height="4.5" fill="#E7E7E7"/>
<rect x="21" y="44.5" width="4" height="4.5" fill="#E7E7E7"/>
<rect x="135" y="44.5" width="4" height="4.5" fill="#E7E7E7"/>
<rect x="40" y="44.5" width="4" height="4.5" fill="#E7E7E7"/>
<rect x="154" y="44.5" width="4" height="4.5" fill="#E7E7E7"/>
<rect x="59" y="44.5" width="4" height="4.5" fill="#E7E7E7"/>
<rect x="173" y="44.5" width="4" height="4.5" fill="#E7E7E7"/>
<rect x="71" y="44.5" width="4" height="4.5" fill="#E7E7E7"/>
<rect x="185" y="44.5" width="4" height="4.5" fill="#E7E7E7"/>
<rect x="30" y="44.5" width="5" height="4.5" fill="#E7E7E7"/>
<rect x="144" y="44.5" width="5" height="4.5" fill="#E7E7E7"/>
<rect x="49" y="44.5" width="5" height="4.5" fill="#E7E7E7"/>
<rect x="163" y="44.5" width="5" height="4.5" fill="#E7E7E7"/>
<rect x="68" y="44.5" width="5" height="4.5" fill="#E7E7E7"/>
<rect x="182" y="44.5" width="5" height="4.5" fill="#E7E7E7"/>
<rect x="78" y="44.5" width="5" height="4.5" fill="#E7E7E7"/>
<rect x="192" y="44.5" width="5" height="4.5" fill="#E7E7E7"/>
<rect x="87" y="44.5" width="5" height="4.5" fill="#E7E7E7"/>
<rect x="201" y="44.5" width="5" height="4.5" fill="#E7E7E7"/>
<rect x="106" y="44.5" width="5" height="4.5" fill="#E7E7E7"/>
<rect x="220" y="44.5" width="5" height="4.5" fill="#E7E7E7"/>
<rect x="97" y="44.5" width="5" height="4.5" fill="#E7E7E7"/>
<rect x="211" y="44.5" width="5" height="4.5" fill="#E7E7E7"/>
<rect x="240" y="44.5" width="5" height="4.5" fill="#E7E7E7"/>
<rect x="249" y="44.5" width="5" height="4.5" fill="#E7E7E7"/>
<rect x="259" y="44.5" width="5" height="4.5" fill="#E7E7E7"/>
<rect x="273" y="44.5" width="5" height="4.5" fill="#E7E7E7"/>
<rect x="283" y="44.5" width="5" height="4.5" fill="#E7E7E7"/>
<rect x="292" y="44.5" width="5" height="4.5" fill="#E7E7E7"/>
<rect x="116" y="44.5" width="5" height="4.5" fill="#E7E7E7"/>
<rect x="230" y="44.5" width="5" height="4.5" fill="#E7E7E7"/>
<rect x="83" y="44.5" width="4" height="4.5" fill="#F7F7F7"/>
<rect x="197" y="44.5" width="4" height="4.5" fill="#F7F7F7"/>
<rect x="102" y="44.5" width="4" height="4.5" fill="#F7F7F7"/>
<rect x="216" y="44.5" width="4" height="4.5" fill="#F7F7F7"/>
<rect x="245" y="44.5" width="4" height="4.5" fill="#F7F7F7"/>
<rect x="121" y="44.5" width="4" height="4.5" fill="#F7F7F7"/>
<rect x="235" y="44.5" width="5" height="4.5" fill="#F7F7F7"/>
<rect x="254" y="44.5" width="5" height="4.5" fill="#F7F7F7"/>
<rect x="278" y="44.5" width="5" height="4.5" fill="#F7F7F7"/>
<rect x="288" y="44.5" width="4" height="4.5" fill="#F7F7F7"/>
<rect x="297" y="44.5" width="5" height="4.5" fill="#F7F7F7"/>
<rect x="264" y="44.5" width="9" height="4.5" fill="#F7F7F7"/>
<rect x="16" y="40" width="5" height="4.5" fill="#E7E7E7"/>
<rect x="130" y="40" width="5" height="4.5" fill="#E7E7E7"/>
<rect x="25" y="40" width="5" height="4.5" fill="#E7E7E7"/>
<rect x="139" y="40" width="5" height="4.5" fill="#E7E7E7"/>
<rect x="35" y="40" width="5" height="4.5" fill="#E7E7E7"/>
<rect x="149" y="40" width="5" height="4.5" fill="#E7E7E7"/>
<rect x="54" y="40" width="5" height="4.5" fill="#E7E7E7"/>
<rect x="168" y="40" width="5" height="4.5" fill="#E7E7E7"/>
<rect x="63" y="40" width="5" height="4.5" fill="#E7E7E7"/>
<rect x="177" y="40" width="5" height="4.5" fill="#E7E7E7"/>
<rect x="73" y="40" width="5" height="4.5" fill="#E7E7E7"/>
<rect x="187" y="40" width="5" height="4.5" fill="#E7E7E7"/>
<rect x="92" y="40" width="5" height="4.5" fill="#E7E7E7"/>
<rect x="206" y="40" width="5" height="4.5" fill="#E7E7E7"/>
<rect x="111" y="40" width="5" height="4.5" fill="#E7E7E7"/>
<rect x="225" y="40" width="5" height="4.5" fill="#E7E7E7"/>
<rect x="44" y="40" width="5" height="4.5" fill="#E7E7E7"/>
<rect x="158" y="40" width="5" height="4.5" fill="#E7E7E7"/>
<rect x="11" y="40" width="5" height="4.5" fill="#F7F7F7"/>
<rect x="125" y="40" width="5" height="4.5" fill="#F7F7F7"/>
<rect x="21" y="40" width="4" height="4.5" fill="#F7F7F7"/>
<rect x="135" y="40" width="4" height="4.5" fill="#F7F7F7"/>
<rect x="40" y="40" width="4" height="4.5" fill="#F7F7F7"/>
<rect x="154" y="40" width="4" height="4.5" fill="#F7F7F7"/>
<rect x="59" y="40" width="4" height="4.5" fill="#F7F7F7"/>
<rect x="173" y="40" width="4" height="4.5" fill="#F7F7F7"/>
<rect x="30" y="40" width="5" height="4.5" fill="#F7F7F7"/>
<rect x="144" y="40" width="5" height="4.5" fill="#F7F7F7"/>
<rect x="49" y="40" width="5" height="4.5" fill="#F7F7F7"/>
<rect x="163" y="40" width="5" height="4.5" fill="#F7F7F7"/>
<rect x="68" y="40" width="5" height="4.5" fill="#F7F7F7"/>
<rect x="182" y="40" width="5" height="4.5" fill="#F7F7F7"/>
<rect x="78" y="40" width="5" height="4.5" fill="#F7F7F7"/>
<rect x="192" y="40" width="5" height="4.5" fill="#F7F7F7"/>
<rect x="87" y="40" width="5" height="4.5" fill="#F7F7F7"/>
<rect x="201" y="40" width="5" height="4.5" fill="#F7F7F7"/>
<rect x="106" y="40" width="5" height="4.5" fill="#F7F7F7"/>
<rect x="220" y="40" width="5" height="4.5" fill="#F7F7F7"/>
<rect x="97" y="40" width="5" height="4.5" fill="#F7F7F7"/>
<rect x="211" y="40" width="5" height="4.5" fill="#F7F7F7"/>
<rect x="240" y="40" width="5" height="4.5" fill="#F7F7F7"/>
<rect x="249" y="40" width="5" height="4.5" fill="#F7F7F7"/>
<rect x="259" y="40" width="5" height="4.5" fill="#F7F7F7"/>
<rect x="273" y="40" width="5" height="4.5" fill="#F7F7F7"/>
<rect x="283" y="40" width="5" height="4.5" fill="#F7F7F7"/>
<rect x="292" y="40" width="5" height="4.5" fill="#F7F7F7"/>
<rect x="116" y="40" width="5" height="4.5" fill="#F7F7F7"/>
<rect x="230" y="40" width="5" height="4.5" fill="#F7F7F7"/>
<rect x="83" y="40" width="4" height="4.5" fill="#E7E7E7"/>
<rect x="197" y="40" width="4" height="4.5" fill="#E7E7E7"/>
<rect x="102" y="40" width="4" height="4.5" fill="#E7E7E7"/>
<rect x="216" y="40" width="4" height="4.5" fill="#E7E7E7"/>
<rect x="245" y="40" width="4" height="4.5" fill="#E7E7E7"/>
<rect x="121" y="40" width="4" height="4.5" fill="#E7E7E7"/>
<rect x="235" y="40" width="5" height="4.5" fill="#E7E7E7"/>
<rect x="254" y="40" width="5" height="4.5" fill="#E7E7E7"/>
<rect x="278" y="40" width="5" height="4.5" fill="#E7E7E7"/>
<rect x="288" y="40" width="4" height="4.5" fill="#E7E7E7"/>
<rect x="297" y="40" width="5" height="4.5" fill="#E7E7E7"/>
<rect x="264" y="40" width="9" height="4.5" fill="#E7E7E7"/>
<rect x="6" y="44.5" width="5" height="4.5" fill="#F7F7F7"/>
<rect x="16" y="44.5" width="5" height="4.5" fill="#F7F7F7"/>
<rect x="130" y="44.5" width="5" height="4.5" fill="#F7F7F7"/>
<rect x="25" y="44.5" width="5" height="4.5" fill="#F7F7F7"/>
<rect x="139" y="44.5" width="5" height="4.5" fill="#F7F7F7"/>
<rect x="35" y="44.5" width="5" height="4.5" fill="#F7F7F7"/>
<rect x="149" y="44.5" width="5" height="4.5" fill="#F7F7F7"/>
<rect x="54" y="44.5" width="5" height="4.5" fill="#F7F7F7"/>
<rect x="168" y="44.5" width="5" height="4.5" fill="#F7F7F7"/>
<rect x="63" y="44.5" width="5" height="4.5" fill="#F7F7F7"/>
<rect x="177" y="44.5" width="5" height="4.5" fill="#F7F7F7"/>
<rect x="73" y="44.5" width="5" height="4.5" fill="#F7F7F7"/>
<rect x="187" y="44.5" width="5" height="4.5" fill="#F7F7F7"/>
<rect x="92" y="44.5" width="5" height="4.5" fill="#F7F7F7"/>
<rect x="206" y="44.5" width="5" height="4.5" fill="#F7F7F7"/>
<rect x="111" y="44.5" width="5" height="4.5" fill="#F7F7F7"/>
<rect x="225" y="44.5" width="5" height="4.5" fill="#F7F7F7"/>
<rect x="44" y="44.5" width="5" height="4.5" fill="#F7F7F7"/>
<rect x="158" y="44.5" width="5" height="4.5" fill="#F7F7F7"/>
<rect x="6" y="59" width="5" height="4.5" fill="#F7F7F7"/>
<rect x="11" y="63.5" width="5" height="4.5" fill="#F7F7F7"/>
<rect x="125" y="63.5" width="5" height="4.5" fill="#F7F7F7"/>
<rect x="21" y="63.5" width="4" height="4.5" fill="#F7F7F7"/>
<rect x="135" y="63.5" width="4" height="4.5" fill="#F7F7F7"/>
<rect x="40" y="63.5" width="4" height="4.5" fill="#F7F7F7"/>
<rect x="154" y="63.5" width="4" height="4.5" fill="#F7F7F7"/>
<rect x="59" y="63.5" width="4" height="4.5" fill="#F7F7F7"/>
<rect x="173" y="63.5" width="4" height="4.5" fill="#F7F7F7"/>
<rect x="71" y="63.5" width="4" height="4.5" fill="#F7F7F7"/>
<rect x="185" y="63.5" width="4" height="4.5" fill="#F7F7F7"/>
<rect x="30" y="63.5" width="5" height="4.5" fill="#F7F7F7"/>
<rect x="144" y="63.5" width="5" height="4.5" fill="#F7F7F7"/>
<rect x="49" y="63.5" width="5" height="4.5" fill="#F7F7F7"/>
<rect x="163" y="63.5" width="5" height="4.5" fill="#F7F7F7"/>
<rect x="68" y="63.5" width="5" height="4.5" fill="#F7F7F7"/>
<rect x="182" y="63.5" width="5" height="4.5" fill="#F7F7F7"/>
<rect x="78" y="63.5" width="5" height="4.5" fill="#F7F7F7"/>
<rect x="192" y="63.5" width="5" height="4.5" fill="#F7F7F7"/>
<rect x="87" y="63.5" width="5" height="4.5" fill="#F7F7F7"/>
<rect x="201" y="63.5" width="5" height="4.5" fill="#F7F7F7"/>
<rect x="106" y="63.5" width="5" height="4.5" fill="#F7F7F7"/>
<rect x="220" y="63.5" width="5" height="4.5" fill="#F7F7F7"/>
<rect x="97" y="63.5" width="5" height="4.5" fill="#F7F7F7"/>
<rect x="211" y="63.5" width="5" height="4.5" fill="#F7F7F7"/>
<rect x="240" y="63.5" width="5" height="4.5" fill="#F7F7F7"/>
<rect x="249" y="63.5" width="5" height="4.5" fill="#F7F7F7"/>
<rect x="259" y="63.5" width="5" height="4.5" fill="#F7F7F7"/>
<rect x="273" y="63.5" width="5" height="4.5" fill="#F7F7F7"/>
<rect x="283" y="63.5" width="5" height="4.5" fill="#F7F7F7"/>
<rect x="292" y="63.5" width="5" height="4.5" fill="#F7F7F7"/>
<rect x="116" y="63.5" width="5" height="4.5" fill="#F7F7F7"/>
<rect x="230" y="63.5" width="5" height="4.5" fill="#F7F7F7"/>
<rect x="83" y="63.5" width="4" height="4.5" fill="#ECECEC"/>
<rect x="197" y="63.5" width="4" height="4.5" fill="#ECECEC"/>
<rect x="102" y="63.5" width="4" height="4.5" fill="#ECECEC"/>
<rect x="216" y="63.5" width="4" height="4.5" fill="#ECECEC"/>
<rect x="245" y="63.5" width="4" height="4.5" fill="#ECECEC"/>
<rect x="121" y="63.5" width="4" height="4.5" fill="#ECECEC"/>
<rect x="235" y="63.5" width="5" height="4.5" fill="#ECECEC"/>
<rect x="254" y="63.5" width="5" height="4.5" fill="#ECECEC"/>
<rect x="278" y="63.5" width="5" height="4.5" fill="#ECECEC"/>
<rect x="288" y="63.5" width="4" height="4.5" fill="#ECECEC"/>
<rect x="297" y="63.5" width="5" height="4.5" fill="#ECECEC"/>
<rect x="264" y="63.5" width="9" height="4.5" fill="#ECECEC"/>
<rect x="16" y="59" width="5" height="4.5" fill="#F7F7F7"/>
<rect x="130" y="59" width="5" height="4.5" fill="#F7F7F7"/>
<rect x="25" y="59" width="5" height="4.5" fill="#F7F7F7"/>
<rect x="139" y="59" width="5" height="4.5" fill="#F7F7F7"/>
<rect x="35" y="59" width="5" height="4.5" fill="#F7F7F7"/>
<rect x="149" y="59" width="5" height="4.5" fill="#F7F7F7"/>
<rect x="54" y="59" width="5" height="4.5" fill="#F7F7F7"/>
<rect x="168" y="59" width="5" height="4.5" fill="#F7F7F7"/>
<rect x="63" y="59" width="5" height="4.5" fill="#F7F7F7"/>
<rect x="177" y="59" width="5" height="4.5" fill="#F7F7F7"/>
<rect x="73" y="59" width="5" height="4.5" fill="#F7F7F7"/>
<rect x="187" y="59" width="5" height="4.5" fill="#F7F7F7"/>
<rect x="92" y="59" width="5" height="4.5" fill="#F7F7F7"/>
<rect x="206" y="59" width="5" height="4.5" fill="#F7F7F7"/>
<rect x="111" y="59" width="5" height="4.5" fill="#F7F7F7"/>
<rect x="225" y="59" width="5" height="4.5" fill="#F7F7F7"/>
<rect x="44" y="59" width="5" height="4.5" fill="#F7F7F7"/>
<rect x="158" y="59" width="5" height="4.5" fill="#F7F7F7"/>
<rect x="11" y="59" width="5" height="4.5" fill="#ECECEC"/>
<rect x="125" y="59" width="5" height="4.5" fill="#ECECEC"/>
<rect x="21" y="59" width="4" height="4.5" fill="#ECECEC"/>
<rect x="135" y="59" width="4" height="4.5" fill="#ECECEC"/>
<rect x="40" y="59" width="4" height="4.5" fill="#ECECEC"/>
<rect x="154" y="59" width="4" height="4.5" fill="#ECECEC"/>
<rect x="59" y="59" width="4" height="4.5" fill="#ECECEC"/>
<rect x="173" y="59" width="4" height="4.5" fill="#ECECEC"/>
<rect x="30" y="59" width="5" height="4.5" fill="#ECECEC"/>
<rect x="144" y="59" width="5" height="4.5" fill="#ECECEC"/>
<rect x="49" y="59" width="5" height="4.5" fill="#ECECEC"/>
<rect x="163" y="59" width="5" height="4.5" fill="#ECECEC"/>
<rect x="68" y="59" width="5" height="4.5" fill="#ECECEC"/>
<rect x="182" y="59" width="5" height="4.5" fill="#ECECEC"/>
<rect x="78" y="59" width="5" height="4.5" fill="#ECECEC"/>
<rect x="192" y="59" width="5" height="4.5" fill="#ECECEC"/>
<rect x="87" y="59" width="5" height="4.5" fill="#ECECEC"/>
<rect x="201" y="59" width="5" height="4.5" fill="#ECECEC"/>
<rect x="106" y="59" width="5" height="4.5" fill="#ECECEC"/>
<rect x="220" y="59" width="5" height="4.5" fill="#ECECEC"/>
<rect x="97" y="59" width="5" height="4.5" fill="#ECECEC"/>
<rect x="211" y="59" width="5" height="4.5" fill="#ECECEC"/>
<rect x="240" y="59" width="5" height="4.5" fill="#ECECEC"/>
<rect x="249" y="59" width="5" height="4.5" fill="#ECECEC"/>
<rect x="259" y="59" width="5" height="4.5" fill="#ECECEC"/>
<rect x="273" y="59" width="5" height="4.5" fill="#ECECEC"/>
<rect x="283" y="59" width="5" height="4.5" fill="#ECECEC"/>
<rect x="292" y="59" width="5" height="4.5" fill="#ECECEC"/>
<rect x="116" y="59" width="5" height="4.5" fill="#ECECEC"/>
<rect x="230" y="59" width="5" height="4.5" fill="#ECECEC"/>
<rect x="83" y="59" width="4" height="4.5" fill="#F7F7F7"/>
<rect x="197" y="59" width="4" height="4.5" fill="#F7F7F7"/>
<rect x="102" y="59" width="4" height="4.5" fill="#F7F7F7"/>
<rect x="216" y="59" width="4" height="4.5" fill="#F7F7F7"/>
<rect x="245" y="59" width="4" height="4.5" fill="#F7F7F7"/>
<rect x="121" y="59" width="4" height="4.5" fill="#F7F7F7"/>
<rect x="235" y="59" width="5" height="4.5" fill="#F7F7F7"/>
<rect x="254" y="59" width="5" height="4.5" fill="#F7F7F7"/>
<rect x="278" y="59" width="5" height="4.5" fill="#F7F7F7"/>
<rect x="288" y="59" width="4" height="4.5" fill="#F7F7F7"/>
<rect x="297" y="59" width="5" height="4.5" fill="#F7F7F7"/>
<rect x="264" y="59" width="9" height="4.5" fill="#F7F7F7"/>
<rect x="6" y="63.5" width="5" height="4.5" fill="#ECECEC"/>
<rect x="16" y="63.5" width="5" height="4.5" fill="#ECECEC"/>
<rect x="130" y="63.5" width="5" height="4.5" fill="#ECECEC"/>
<rect x="25" y="63.5" width="5" height="4.5" fill="#ECECEC"/>
<rect x="139" y="63.5" width="5" height="4.5" fill="#ECECEC"/>
<rect x="35" y="63.5" width="5" height="4.5" fill="#ECECEC"/>
<rect x="149" y="63.5" width="5" height="4.5" fill="#ECECEC"/>
<rect x="54" y="63.5" width="5" height="4.5" fill="#ECECEC"/>
<rect x="168" y="63.5" width="5" height="4.5" fill="#ECECEC"/>
<rect x="63" y="63.5" width="5" height="4.5" fill="#ECECEC"/>
<rect x="177" y="63.5" width="5" height="4.5" fill="#ECECEC"/>
<rect x="73" y="63.5" width="5" height="4.5" fill="#ECECEC"/>
<rect x="187" y="63.5" width="5" height="4.5" fill="#ECECEC"/>
<rect x="92" y="63.5" width="5" height="4.5" fill="#ECECEC"/>
<rect x="206" y="63.5" width="5" height="4.5" fill="#ECECEC"/>
<rect x="111" y="63.5" width="5" height="4.5" fill="#ECECEC"/>
<rect x="225" y="63.5" width="5" height="4.5" fill="#ECECEC"/>
<rect x="44" y="63.5" width="5" height="4.5" fill="#ECECEC"/>
<rect x="158" y="63.5" width="5" height="4.5" fill="#ECECEC"/>
<rect x="6" y="30" width="296" height="10" fill="#E7E7E7"/>
<rect x="6" y="49" width="296" height="10" fill="#F7F7F7"/>
<rect x="6" y="68" width="296" height="10" fill="#ECECEC"/>
<path d="M31.3982 60V56.3054H38.7964V60H31.3982ZM27.6946 56.3054V41.5H24V37.8054H27.6946V30.4072H31.3982V37.8054H38.7964V41.5H31.3982V56.3054H27.6946ZM47.6746 60V56.3054H58.7764V60H47.6746ZM43.98 56.3054V41.5H47.6746V56.3054H43.98ZM58.7764 56.3054V41.5H62.48V56.3054H58.7764ZM47.6746 41.5V37.8054H58.7764V41.5H47.6746ZM67.6455 63.6946V60H82.4419V63.6946H67.6455ZM67.6455 52.6018V41.5H71.3401V52.6018H67.6455ZM82.4419 60V56.3054H71.3401V52.6018H82.4419V41.5H71.3401V37.8054H86.1455V60H82.4419ZM91.3111 63.6946V60H106.107V63.6946H91.3111ZM91.3111 52.6018V41.5H95.0057V52.6018H91.3111ZM106.107 60V56.3054H95.0057V52.6018H106.107V41.5H95.0057V37.8054H109.811V60H106.107ZM118.671 60V56.3054H122.375V60H118.671ZM114.977 56.3054V26.7036H118.671V56.3054H114.977ZM131.244 60V56.3054H146.049V60H131.244ZM127.549 56.3054V41.5H131.244V45.2036H142.346V41.5H146.049V48.9072H131.244V56.3054H127.549ZM131.244 41.5V37.8054H142.346V41.5H131.244ZM185.982 60V41.5H189.686V60H185.982ZM163.788 60V37.8054H185.982V41.5H178.584V60H174.881V41.5H167.482V60H163.788ZM198.555 60V56.3054H209.657V60H198.555ZM194.861 56.3054V41.5H198.555V56.3054H194.861ZM209.657 56.3054V41.5H213.361V56.3054H209.657ZM198.555 41.5V37.8054H209.657V41.5H198.555ZM218.526 56.3054V41.5H222.221V56.3054H218.526ZM222.221 60V56.3054H233.322V41.5H222.221V37.8054H233.322V26.7036H237.026V60H222.221ZM245.886 60V56.3054H260.692V60H245.886ZM242.192 56.3054V41.5H245.886V45.2036H256.988V41.5H260.692V48.9072H245.886V56.3054H242.192ZM245.886 41.5V37.8054H256.988V41.5H245.886ZM282.124 60V52.6018H285.828V60H282.124ZM282.124 48.9072V26.7036H285.828V48.9072H282.124Z" fill="black"/>
<rect x="6" y="78" width="296" height="5" fill="#ADADAD"/>
<rect x="65.2266" y="132.941" width="20.283" height="19.1538" fill="#C67B08"/>
<rect x="227.49" y="128.154" width="20.283" height="23.9423" fill="#C67B08"/>
<rect x="227.49" y="223.924" width="36.5094" height="23.9423" fill="#C67B08"/>
<rect x="207.207" y="290.961" width="20.283" height="23.9423" fill="#C67B08"/>
<rect x="227.49" y="314.904" width="16.2264" height="23.9423" fill="#C67B08"/>
<rect x="146.359" y="314.904" width="16.2264" height="43.0962" fill="#C67B08"/>
<rect x="89.5664" y="290.961" width="20.283" height="23.9423" fill="#C67B08"/>
<rect x="69.2832" y="314.904" width="20.283" height="23.9423" fill="#C67B08"/>
<rect x="49" y="223.924" width="40.566" height="23.9423" fill="#C67B08"/>
<rect x="85.5098" y="152.096" width="20.283" height="23.9423" fill="#C67B08"/>
<rect x="207.207" y="152.096" width="20.283" height="23.9423" fill="#C67B08"/>
<rect x="146.359" y="109" width="16.2264" height="43.0962" fill="#C67B08"/>
<rect x="126.076" y="176.039" width="60.8491" height="23.9423" fill="#C67B08"/>
<rect x="186.924" y="199.98" width="20.283" height="67.0385" fill="#C67B08"/>
<rect x="105.793" y="199.98" width="20.283" height="67.0385" fill="#C67B08"/>
<rect x="126.076" y="267.02" width="60.8491" height="23.9423" fill="#C67B08"/>
<rect x="126.076" y="199.98" width="60.8491" height="67.0385" fill="#FFD600"/>
</g>
<defs>
<clipPath id="clip0_96_87970">
<rect width="314" height="395" fill="white"/>
</clipPath>
</defs>
</svg>
