<svg width="77" height="76" viewBox="0 0 77 76" fill="none" xmlns="http://www.w3.org/2000/svg">
<path d="M0 0H77V76H0V0Z" fill="white"/>
<path d="M4.05263 0H72.9474V3.94805H4.05263V0Z" fill="black"/>
<path d="M4.05263 61.1948H72.9474V66.1299H4.05263V61.1948Z" fill="black"/>
<path d="M4.05263 8.88312H72.9474V13.8182H4.05263V8.88312Z" fill="black"/>
<path d="M4.05263 71.0649H72.9474V76H4.05263V71.0649Z" fill="black"/>
<path d="M0 0H4.05263V76H0V0Z" fill="black"/>
<path d="M72.9474 0H77V76H72.9474V0Z" fill="black"/>
<path d="M4.05263 3.94805H72.9474V8.88312H4.05263V3.94805Z" fill="#FF5A73"/>
<path d="M4.05263 66.1299H72.9474V71.0649H4.05263V66.1299Z" fill="#FF5A73"/>
<path d="M28.3684 47.3766H38.5V57.2468H28.3684V47.3766Z" fill="#EFEFEF"/>
<path d="M43.5658 32.5714H53.6974V57.2468H43.5658V32.5714Z" fill="#EFEFEF"/>
<path d="M58.7632 17.7662H68.8947V57.2468H58.7632V17.7662Z" fill="#EFEFEF"/>
<path d="M13.1711 32.5714H18.2368V57.2468H13.1711V32.5714Z" fill="black"/>
<path d="M8.10526 17.7662H23.3026V32.5714H8.10526V17.7662Z" fill="black"/>
<path d="M13.1711 22.7013H18.2368V27.6364H13.1711V22.7013Z" fill="#FF5A73"/>
</svg>
