<svg width="1127" height="105" viewBox="0 0 1127 105" fill="none" xmlns="http://www.w3.org/2000/svg">
<path d="M1122 19H1127V86H1122V19Z" fill="black"/>
<path d="M1118 86H1122V91H1118V86Z" fill="black"/>
<path d="M1108 96H1113V100H1108V96Z" fill="black"/>
<path d="M1113 91H1118V96H1113V91Z" fill="black"/>
<path d="M1108 5H1113V10H1108V5Z" fill="black"/>
<path d="M1113 10H1118V15H1113V10Z" fill="black"/>
<path d="M1118 15H1122V19H1118V15Z" fill="black"/>
<path d="M19 0H1108V5H19V0Z" fill="black"/>
<path d="M19 100H1108V105H19V100Z" fill="black"/>
<path d="M0 19H5V86H0V19Z" fill="black"/>
<path d="M5 86H10V91H5V86Z" fill="black"/>
<path d="M10 91H14V96H10V91Z" fill="black"/>
<path d="M14 96H19V100H14V96Z" fill="black"/>
<path d="M14 5H19V10H14V5Z" fill="black"/>
<path d="M10 10H14V15H10V10Z" fill="black"/>
<path d="M5 15H10V19H5V15Z" fill="black"/>
<path d="M19 5H1108V10H19V5Z" fill="white"/>
<path d="M1108 10H1113V15H1108V10Z" fill="white"/>
<path d="M1113 15H1118V19H1113V15Z" fill="white"/>
<path d="M1118 19H1122V86H1118V19Z" fill="white"/>
<path d="M1113 86H1118V91H1113V86Z" fill="white"/>
<path d="M1108 91H1113V96H1108V91Z" fill="white"/>
<path d="M19 96H1108V100H19V96Z" fill="white"/>
<path d="M14 10H19V15H14V10Z" fill="white"/>
<path d="M10 15H14V19H10V15Z" fill="white"/>
<path d="M5 19H10V86H5V19Z" fill="white"/>
<path d="M10 86H14V91H10V86Z" fill="white"/>
<path d="M14 91H19V96H14V91Z" fill="white"/>
<path d="M10 19H1118V86H10V19Z" fill="black"/>
<path d="M19 10H1108V19H19V10Z" fill="black"/>
<path d="M19 86H1108V96H19V86Z" fill="black"/>
<path d="M14 86H19V91H14V86Z" fill="black"/>
<path d="M14 15H19V19H14V15Z" fill="black"/>
<path d="M1108 15H1113V19H1108V15Z" fill="black"/>
<path d="M1108 86H1113V91H1108V86Z" fill="black"/>
<path d="M54.0773 53.8047V44.207H58.8703V53.8047H54.0773ZM44.4797 73V29.8047H49.2727V34.6094H54.0773V44.207H49.2727V73H44.4797ZM63.675 73V63.4023H58.8703V53.8047H63.675V29.8047H68.4797V73H63.675Z" fill="#E3F200"/>
<path d="M77.0939 73V68.207H91.4963V73H77.0939ZM72.3009 68.207V49H77.0939V68.207H72.3009ZM91.4963 68.207V49H96.3009V68.207H91.4963ZM77.0939 49V44.207H91.4963V49H77.0939Z" fill="#E3F200"/>
<path d="M104.915 73V63.4023H109.72V73H104.915ZM114.513 73V63.4023H119.318V73H114.513ZM109.72 63.4023V49H114.513V63.4023H109.72ZM100.122 63.4023V44.207H104.915V63.4023H100.122ZM119.318 63.4023V44.207H124.122V63.4023H119.318Z" fill="#E3F200"/>
<path d="M160.569 63.4023V49H165.374V63.4023H160.569ZM141.374 77.793V44.207H160.569V49H146.167V63.4023H160.569V68.207H146.167V77.793H141.374Z" fill="#E3F200"/>
<path d="M173.988 73V68.207H178.793V73H173.988ZM169.195 68.207V29.8047H173.988V68.207H169.195Z" fill="#E3F200"/>
<path d="M182.626 68.207V58.6094H187.419V68.207H182.626ZM187.419 73V68.207H201.821V58.6094H187.419V53.8047H201.821V49H206.626V73H187.419ZM182.626 49V44.207H201.821V49H182.626Z" fill="#E3F200"/>
<path d="M210.447 77.793V73H220.045V77.793H210.447ZM220.045 73V63.4023H224.838V73H220.045ZM215.24 63.4023V53.8047H220.045V63.4023H215.24ZM224.838 63.4023V53.8047H229.643V63.4023H224.838ZM210.447 53.8047V44.207H215.24V53.8047H210.447ZM229.643 53.8047V44.207H234.447V53.8047H229.643Z" fill="#E3F200"/>
<path d="M238.268 73V44.207H243.061V73H238.268ZM238.268 39.4023V34.6094H243.061V39.4023H238.268Z" fill="#E3F200"/>
<path d="M266.113 73V49H270.918V73H266.113ZM246.918 73V44.207H266.113V49H251.711V73H246.918Z" fill="#E3F200"/>
<path d="M274.739 77.793V73H293.934V77.793H274.739ZM274.739 63.4023V49H279.532V63.4023H274.739ZM293.934 73V68.207H279.532V63.4023H293.934V49H279.532V44.207H298.739V73H293.934Z" fill="#E3F200"/>
<path d="M324.184 63.4023V58.6094H328.988V63.4023H324.184ZM324.184 44.207V39.4023H328.988V44.207H324.184Z" fill="#D2C9C2"/>
</svg>
