<svg width="950" height="242" viewBox="0 0 950 242" fill="none" xmlns="http://www.w3.org/2000/svg">
<path d="M11 9H941V231H11V9Z" fill="white"/>
<path d="M232 19H237V221H232V19Z" fill="#616161"/>
<path d="M237 216H931V221H237V216Z" fill="#A2A2A2"/>
<path d="M237 19H931V24H237V19Z" fill="#A2A2A2"/>
<path d="M925 24H931V216H925V24Z" fill="#A2A2A2"/>
<path d="M237 24H925V216H237V24Z" fill="#FBFBFB"/>
<path d="M237 24H925V29H237V24Z" fill="#E3E3E3"/>
<path d="M237 44H925V49H237V44Z" fill="#E3E3E3"/>
<path d="M237 63H925V68H237V63Z" fill="#E3E3E3"/>
<path d="M237 83H925V88H237V83Z" fill="#E3E3E3"/>
<path d="M237 103H925V108H237V103Z" fill="#E3E3E3"/>
<path d="M237 123H925V128H237V123Z" fill="#E3E3E3"/>
<path d="M237 142H925V147H237V142Z" fill="#E3E3E3"/>
<path d="M237 161H925V166H237V161Z" fill="#E3E3E3"/>
<path d="M237 182H925V187H237V182Z" fill="#E3E3E3"/>
<path d="M237 201H925V206H237V201Z" fill="#E3E3E3"/>
<path d="M237 34H925V39H237V34Z" fill="#E3E3E3"/>
<path d="M237 54H925V59H237V54Z" fill="#E3E3E3"/>
<path d="M237 73H925V78H237V73Z" fill="#E3E3E3"/>
<path d="M237 93H925V98H237V93Z" fill="#E3E3E3"/>
<path d="M237 113H925V118H237V113Z" fill="#E3E3E3"/>
<path d="M237 132H925V137H237V132Z" fill="#E3E3E3"/>
<path d="M237 152H925V157H237V152Z" fill="#E3E3E3"/>
<path d="M237 172H925V177H237V172Z" fill="#E3E3E3"/>
<path d="M237 192H925V197H237V192Z" fill="#E3E3E3"/>
<path d="M237 211H925V216H237V211Z" fill="#E3E3E3"/>
<path d="M20 187H232V221H20V187Z" fill="#C3C3C3"/>
<path d="M20 118H232V152H20V118Z" fill="#D3D3D3"/>
<path d="M20 54H232V103H20V54Z" fill="#E3E3E3"/>
<path d="M20 113H25V118H20V113Z" fill="#E3E3E3"/>
<path d="M30 113H35V118H30V113Z" fill="#E3E3E3"/>
<path d="M40 113H45V118H40V113Z" fill="#E3E3E3"/>
<path d="M50 113H55V118H50V113Z" fill="#E3E3E3"/>
<path d="M60 113H65V118H60V113Z" fill="#E3E3E3"/>
<path d="M70 113H76V118H70V113Z" fill="#E3E3E3"/>
<path d="M81 113H86V118H81V113Z" fill="#E3E3E3"/>
<path d="M91 113H96V118H91V113Z" fill="#E3E3E3"/>
<path d="M101 113H106V118H101V113Z" fill="#E3E3E3"/>
<path d="M111 113H116V118H111V113Z" fill="#E3E3E3"/>
<path d="M121 113H126V118H121V113Z" fill="#E3E3E3"/>
<path d="M131 113H136V118H131V113Z" fill="#E3E3E3"/>
<path d="M141 113H146V118H141V113Z" fill="#E3E3E3"/>
<path d="M151 113H156V118H151V113Z" fill="#E3E3E3"/>
<path d="M161 113H166V118H161V113Z" fill="#E3E3E3"/>
<path d="M171 113H176V118H171V113Z" fill="#E3E3E3"/>
<path d="M182 113H187V118H182V113Z" fill="#E3E3E3"/>
<path d="M192 113H197V118H192V113Z" fill="#E3E3E3"/>
<path d="M202 113H207V118H202V113Z" fill="#E3E3E3"/>
<path d="M212 113H217V118H212V113Z" fill="#E3E3E3"/>
<path d="M222 113H227V118H222V113Z" fill="#E3E3E3"/>
<path d="M25 113H30V118H25V113Z" fill="#D3D3D3"/>
<path d="M35 113H40V118H35V113Z" fill="#D3D3D3"/>
<path d="M45 113H50V118H45V113Z" fill="#D3D3D3"/>
<path d="M55 113H60V118H55V113Z" fill="#D3D3D3"/>
<path d="M65 113H70V118H65V113Z" fill="#D3D3D3"/>
<path d="M76 113H81V118H76V113Z" fill="#D3D3D3"/>
<path d="M86 113H91V118H86V113Z" fill="#D3D3D3"/>
<path d="M96 113H101V118H96V113Z" fill="#D3D3D3"/>
<path d="M106 113H111V118H106V113Z" fill="#D3D3D3"/>
<path d="M116 113H121V118H116V113Z" fill="#D3D3D3"/>
<path d="M126 113H131V118H126V113Z" fill="#D3D3D3"/>
<path d="M136 113H141V118H136V113Z" fill="#D3D3D3"/>
<path d="M146 113H151V118H146V113Z" fill="#D3D3D3"/>
<path d="M156 113H161V118H156V113Z" fill="#D3D3D3"/>
<path d="M166 113H171V118H166V113Z" fill="#D3D3D3"/>
<path d="M176 113H182V118H176V113Z" fill="#D3D3D3"/>
<path d="M187 113H192V118H187V113Z" fill="#D3D3D3"/>
<path d="M197 113H202V118H197V113Z" fill="#D3D3D3"/>
<path d="M207 113H212V118H207V113Z" fill="#D3D3D3"/>
<path d="M217 113H222V118H217V113Z" fill="#D3D3D3"/>
<path d="M227 113H232V118H227V113Z" fill="#D3D3D3"/>
<path d="M20 108H25V113H20V108Z" fill="#D3D3D3"/>
<path d="M30 108H35V113H30V108Z" fill="#D3D3D3"/>
<path d="M40 108H45V113H40V108Z" fill="#D3D3D3"/>
<path d="M50 108H55V113H50V108Z" fill="#D3D3D3"/>
<path d="M60 108H65V113H60V108Z" fill="#D3D3D3"/>
<path d="M70 108H76V113H70V108Z" fill="#D3D3D3"/>
<path d="M81 108H86V113H81V108Z" fill="#D3D3D3"/>
<path d="M91 108H96V113H91V108Z" fill="#D3D3D3"/>
<path d="M101 108H106V113H101V108Z" fill="#D3D3D3"/>
<path d="M111 108H116V113H111V108Z" fill="#D3D3D3"/>
<path d="M121 108H126V113H121V108Z" fill="#D3D3D3"/>
<path d="M131 108H136V113H131V108Z" fill="#D3D3D3"/>
<path d="M141 108H146V113H141V108Z" fill="#D3D3D3"/>
<path d="M151 108H156V113H151V108Z" fill="#D3D3D3"/>
<path d="M161 108H166V113H161V108Z" fill="#D3D3D3"/>
<path d="M171 108H176V113H171V108Z" fill="#D3D3D3"/>
<path d="M182 108H187V113H182V108Z" fill="#D3D3D3"/>
<path d="M192 108H197V113H192V108Z" fill="#D3D3D3"/>
<path d="M202 108H207V113H202V108Z" fill="#D3D3D3"/>
<path d="M212 108H217V113H212V108Z" fill="#D3D3D3"/>
<path d="M222 108H227V113H222V108Z" fill="#D3D3D3"/>
<path d="M25 108H30V113H25V108Z" fill="#E3E3E3"/>
<path d="M35 108H40V113H35V108Z" fill="#E3E3E3"/>
<path d="M45 108H50V113H45V108Z" fill="#E3E3E3"/>
<path d="M55 108H60V113H55V108Z" fill="#E3E3E3"/>
<path d="M65 108H70V113H65V108Z" fill="#E3E3E3"/>
<path d="M76 108H81V113H76V108Z" fill="#E3E3E3"/>
<path d="M86 108H91V113H86V108Z" fill="#E3E3E3"/>
<path d="M96 108H101V113H96V108Z" fill="#E3E3E3"/>
<path d="M106 108H111V113H106V108Z" fill="#E3E3E3"/>
<path d="M116 108H121V113H116V108Z" fill="#E3E3E3"/>
<path d="M126 108H131V113H126V108Z" fill="#E3E3E3"/>
<path d="M136 108H141V113H136V108Z" fill="#E3E3E3"/>
<path d="M146 108H151V113H146V108Z" fill="#E3E3E3"/>
<path d="M156 108H161V113H156V108Z" fill="#E3E3E3"/>
<path d="M166 108H171V113H166V108Z" fill="#E3E3E3"/>
<path d="M176 108H182V113H176V108Z" fill="#E3E3E3"/>
<path d="M187 108H192V113H187V108Z" fill="#E3E3E3"/>
<path d="M197 108H202V113H197V108Z" fill="#E3E3E3"/>
<path d="M207 108H212V113H207V108Z" fill="#E3E3E3"/>
<path d="M217 108H222V113H217V108Z" fill="#E3E3E3"/>
<path d="M227 108H232V113H227V108Z" fill="#E3E3E3"/>
<path d="M20 103H25V108H20V103Z" fill="#E3E3E3"/>
<path d="M30 103H35V108H30V103Z" fill="#E3E3E3"/>
<path d="M40 103H45V108H40V103Z" fill="#E3E3E3"/>
<path d="M50 103H55V108H50V103Z" fill="#E3E3E3"/>
<path d="M60 103H65V108H60V103Z" fill="#E3E3E3"/>
<path d="M70 103H76V108H70V103Z" fill="#E3E3E3"/>
<path d="M81 103H86V108H81V103Z" fill="#E3E3E3"/>
<path d="M91 103H96V108H91V103Z" fill="#E3E3E3"/>
<path d="M101 103H106V108H101V103Z" fill="#E3E3E3"/>
<path d="M111 103H116V108H111V103Z" fill="#E3E3E3"/>
<path d="M121 103H126V108H121V103Z" fill="#E3E3E3"/>
<path d="M131 103H136V108H131V103Z" fill="#E3E3E3"/>
<path d="M141 103H146V108H141V103Z" fill="#E3E3E3"/>
<path d="M151 103H156V108H151V103Z" fill="#E3E3E3"/>
<path d="M161 103H166V108H161V103Z" fill="#E3E3E3"/>
<path d="M171 103H176V108H171V103Z" fill="#E3E3E3"/>
<path d="M182 103H187V108H182V103Z" fill="#E3E3E3"/>
<path d="M192 103H197V108H192V103Z" fill="#E3E3E3"/>
<path d="M202 103H207V108H202V103Z" fill="#E3E3E3"/>
<path d="M212 103H217V108H212V103Z" fill="#E3E3E3"/>
<path d="M222 103H227V108H222V103Z" fill="#E3E3E3"/>
<path d="M25 103H30V108H25V103Z" fill="#D3D3D3"/>
<path d="M35 103H40V108H35V103Z" fill="#D3D3D3"/>
<path d="M45 103H50V108H45V103Z" fill="#D3D3D3"/>
<path d="M55 103H60V108H55V103Z" fill="#D3D3D3"/>
<path d="M65 103H70V108H65V103Z" fill="#D3D3D3"/>
<path d="M76 103H81V108H76V103Z" fill="#D3D3D3"/>
<path d="M86 103H91V108H86V103Z" fill="#D3D3D3"/>
<path d="M96 103H101V108H96V103Z" fill="#D3D3D3"/>
<path d="M106 103H111V108H106V103Z" fill="#D3D3D3"/>
<path d="M116 103H121V108H116V103Z" fill="#D3D3D3"/>
<path d="M126 103H131V108H126V103Z" fill="#D3D3D3"/>
<path d="M136 103H141V108H136V103Z" fill="#D3D3D3"/>
<path d="M146 103H151V108H146V103Z" fill="#D3D3D3"/>
<path d="M156 103H161V108H156V103Z" fill="#D3D3D3"/>
<path d="M166 103H171V108H166V103Z" fill="#D3D3D3"/>
<path d="M176 103H182V108H176V103Z" fill="#D3D3D3"/>
<path d="M187 103H192V108H187V103Z" fill="#D3D3D3"/>
<path d="M197 103H202V108H197V103Z" fill="#D3D3D3"/>
<path d="M207 103H212V108H207V103Z" fill="#D3D3D3"/>
<path d="M217 103H222V108H217V103Z" fill="#D3D3D3"/>
<path d="M227 103H232V108H227V103Z" fill="#D3D3D3"/>
<path d="M20 49H25V54H20V49Z" fill="#E3E3E3"/>
<path d="M30 49H35V54H30V49Z" fill="#E3E3E3"/>
<path d="M40 49H45V54H40V49Z" fill="#E3E3E3"/>
<path d="M50 49H55V54H50V49Z" fill="#E3E3E3"/>
<path d="M60 49H65V54H60V49Z" fill="#E3E3E3"/>
<path d="M70 49H76V54H70V49Z" fill="#E3E3E3"/>
<path d="M81 49H86V54H81V49Z" fill="#E3E3E3"/>
<path d="M91 49H96V54H91V49Z" fill="#E3E3E3"/>
<path d="M101 49H106V54H101V49Z" fill="#E3E3E3"/>
<path d="M111 49H116V54H111V49Z" fill="#E3E3E3"/>
<path d="M121 49H126V54H121V49Z" fill="#E3E3E3"/>
<path d="M131 49H136V54H131V49Z" fill="#E3E3E3"/>
<path d="M141 49H146V54H141V49Z" fill="#E3E3E3"/>
<path d="M151 49H156V54H151V49Z" fill="#E3E3E3"/>
<path d="M161 49H166V54H161V49Z" fill="#E3E3E3"/>
<path d="M171 49H176V54H171V49Z" fill="#E3E3E3"/>
<path d="M182 49H187V54H182V49Z" fill="#E3E3E3"/>
<path d="M192 49H197V54H192V49Z" fill="#E3E3E3"/>
<path d="M202 49H207V54H202V49Z" fill="#E3E3E3"/>
<path d="M212 49H217V54H212V49Z" fill="#E3E3E3"/>
<path d="M222 49H227V54H222V49Z" fill="#E3E3E3"/>
<path d="M25 49H30V54H25V49Z" fill="#FBFBFB"/>
<path d="M35 49H40V54H35V49Z" fill="#FBFBFB"/>
<path d="M45 49H50V54H45V49Z" fill="#FBFBFB"/>
<path d="M55 49H60V54H55V49Z" fill="#FBFBFB"/>
<path d="M65 49H70V54H65V49Z" fill="#FBFBFB"/>
<path d="M76 49H81V54H76V49Z" fill="#FBFBFB"/>
<path d="M86 49H91V54H86V49Z" fill="#FBFBFB"/>
<path d="M96 49H101V54H96V49Z" fill="#FBFBFB"/>
<path d="M106 49H111V54H106V49Z" fill="#FBFBFB"/>
<path d="M116 49H121V54H116V49Z" fill="#FBFBFB"/>
<path d="M126 49H131V54H126V49Z" fill="#FBFBFB"/>
<path d="M136 49H141V54H136V49Z" fill="#FBFBFB"/>
<path d="M146 49H151V54H146V49Z" fill="#FBFBFB"/>
<path d="M156 49H161V54H156V49Z" fill="#FBFBFB"/>
<path d="M166 49H171V54H166V49Z" fill="#FBFBFB"/>
<path d="M176 49H182V54H176V49Z" fill="#FBFBFB"/>
<path d="M187 49H192V54H187V49Z" fill="#FBFBFB"/>
<path d="M197 49H202V54H197V49Z" fill="#FBFBFB"/>
<path d="M207 49H212V54H207V49Z" fill="#FBFBFB"/>
<path d="M217 49H222V54H217V49Z" fill="#FBFBFB"/>
<path d="M227 49H232V54H227V49Z" fill="#FBFBFB"/>
<path d="M20 44H25V49H20V44Z" fill="#FBFBFB"/>
<path d="M30 44H35V49H30V44Z" fill="#FBFBFB"/>
<path d="M40 44H45V49H40V44Z" fill="#FBFBFB"/>
<path d="M50 44H55V49H50V44Z" fill="#FBFBFB"/>
<path d="M60 44H65V49H60V44Z" fill="#FBFBFB"/>
<path d="M70 44H76V49H70V44Z" fill="#FBFBFB"/>
<path d="M81 44H86V49H81V44Z" fill="#FBFBFB"/>
<path d="M91 44H96V49H91V44Z" fill="#FBFBFB"/>
<path d="M101 44H106V49H101V44Z" fill="#FBFBFB"/>
<path d="M111 44H116V49H111V44Z" fill="#FBFBFB"/>
<path d="M121 44H126V49H121V44Z" fill="#FBFBFB"/>
<path d="M131 44H136V49H131V44Z" fill="#FBFBFB"/>
<path d="M141 44H146V49H141V44Z" fill="#FBFBFB"/>
<path d="M151 44H156V49H151V44Z" fill="#FBFBFB"/>
<path d="M161 44H166V49H161V44Z" fill="#FBFBFB"/>
<path d="M171 44H176V49H171V44Z" fill="#FBFBFB"/>
<path d="M182 44H187V49H182V44Z" fill="#FBFBFB"/>
<path d="M192 44H197V49H192V44Z" fill="#FBFBFB"/>
<path d="M202 44H207V49H202V44Z" fill="#FBFBFB"/>
<path d="M212 44H217V49H212V44Z" fill="#FBFBFB"/>
<path d="M222 44H227V49H222V44Z" fill="#FBFBFB"/>
<path d="M25 44H30V49H25V44Z" fill="#E3E3E3"/>
<path d="M35 44H40V49H35V44Z" fill="#E3E3E3"/>
<path d="M45 44H50V49H45V44Z" fill="#E3E3E3"/>
<path d="M55 44H60V49H55V44Z" fill="#E3E3E3"/>
<path d="M65 44H70V49H65V44Z" fill="#E3E3E3"/>
<path d="M76 44H81V49H76V44Z" fill="#E3E3E3"/>
<path d="M86 44H91V49H86V44Z" fill="#E3E3E3"/>
<path d="M96 44H101V49H96V44Z" fill="#E3E3E3"/>
<path d="M106 44H111V49H106V44Z" fill="#E3E3E3"/>
<path d="M116 44H121V49H116V44Z" fill="#E3E3E3"/>
<path d="M126 44H131V49H126V44Z" fill="#E3E3E3"/>
<path d="M136 44H141V49H136V44Z" fill="#E3E3E3"/>
<path d="M146 44H151V49H146V44Z" fill="#E3E3E3"/>
<path d="M156 44H161V49H156V44Z" fill="#E3E3E3"/>
<path d="M166 44H171V49H166V44Z" fill="#E3E3E3"/>
<path d="M176 44H182V49H176V44Z" fill="#E3E3E3"/>
<path d="M187 44H192V49H187V44Z" fill="#E3E3E3"/>
<path d="M197 44H202V49H197V44Z" fill="#E3E3E3"/>
<path d="M207 44H212V49H207V44Z" fill="#E3E3E3"/>
<path d="M217 44H222V49H217V44Z" fill="#E3E3E3"/>
<path d="M227 44H232V49H227V44Z" fill="#E3E3E3"/>
<path d="M20 39H25V44H20V39Z" fill="#E3E3E3"/>
<path d="M30 39H35V44H30V39Z" fill="#E3E3E3"/>
<path d="M40 39H45V44H40V39Z" fill="#E3E3E3"/>
<path d="M50 39H55V44H50V39Z" fill="#E3E3E3"/>
<path d="M60 39H65V44H60V39Z" fill="#E3E3E3"/>
<path d="M70 39H76V44H70V39Z" fill="#E3E3E3"/>
<path d="M81 39H86V44H81V39Z" fill="#E3E3E3"/>
<path d="M91 39H96V44H91V39Z" fill="#E3E3E3"/>
<path d="M101 39H106V44H101V39Z" fill="#E3E3E3"/>
<path d="M111 39H116V44H111V39Z" fill="#E3E3E3"/>
<path d="M121 39H126V44H121V39Z" fill="#E3E3E3"/>
<path d="M131 39H136V44H131V39Z" fill="#E3E3E3"/>
<path d="M141 39H146V44H141V39Z" fill="#E3E3E3"/>
<path d="M151 39H156V44H151V39Z" fill="#E3E3E3"/>
<path d="M161 39H166V44H161V39Z" fill="#E3E3E3"/>
<path d="M171 39H176V44H171V39Z" fill="#E3E3E3"/>
<path d="M182 39H187V44H182V39Z" fill="#E3E3E3"/>
<path d="M192 39H197V44H192V39Z" fill="#E3E3E3"/>
<path d="M202 39H207V44H202V39Z" fill="#E3E3E3"/>
<path d="M212 39H217V44H212V39Z" fill="#E3E3E3"/>
<path d="M222 39H227V44H222V39Z" fill="#E3E3E3"/>
<path d="M25 39H30V44H25V39Z" fill="#FBFBFB"/>
<path d="M35 39H40V44H35V39Z" fill="#FBFBFB"/>
<path d="M45 39H50V44H45V39Z" fill="#FBFBFB"/>
<path d="M55 39H60V44H55V39Z" fill="#FBFBFB"/>
<path d="M65 39H70V44H65V39Z" fill="#FBFBFB"/>
<path d="M76 39H81V44H76V39Z" fill="#FBFBFB"/>
<path d="M86 39H91V44H86V39Z" fill="#FBFBFB"/>
<path d="M96 39H101V44H96V39Z" fill="#FBFBFB"/>
<path d="M106 39H111V44H106V39Z" fill="#FBFBFB"/>
<path d="M116 39H121V44H116V39Z" fill="#FBFBFB"/>
<path d="M126 39H131V44H126V39Z" fill="#FBFBFB"/>
<path d="M136 39H141V44H136V39Z" fill="#FBFBFB"/>
<path d="M146 39H151V44H146V39Z" fill="#FBFBFB"/>
<path d="M156 39H161V44H156V39Z" fill="#FBFBFB"/>
<path d="M166 39H171V44H166V39Z" fill="#FBFBFB"/>
<path d="M176 39H182V44H176V39Z" fill="#FBFBFB"/>
<path d="M187 39H192V44H187V39Z" fill="#FBFBFB"/>
<path d="M197 39H202V44H197V39Z" fill="#FBFBFB"/>
<path d="M207 39H212V44H207V39Z" fill="#FBFBFB"/>
<path d="M217 39H222V44H217V39Z" fill="#FBFBFB"/>
<path d="M227 39H232V44H227V39Z" fill="#FBFBFB"/>
<path d="M20 182H25V187H20V182Z" fill="#C3C3C3"/>
<path d="M40 182H45V187H40V182Z" fill="#C3C3C3"/>
<path d="M60 182H65V187H60V182Z" fill="#C3C3C3"/>
<path d="M81 182H86V187H81V182Z" fill="#C3C3C3"/>
<path d="M101 182H106V187H101V182Z" fill="#C3C3C3"/>
<path d="M121 182H126V187H121V182Z" fill="#C3C3C3"/>
<path d="M141 182H146V187H141V182Z" fill="#C3C3C3"/>
<path d="M161 182H166V187H161V182Z" fill="#C3C3C3"/>
<path d="M182 182H187V187H182V182Z" fill="#C3C3C3"/>
<path d="M202 182H207V187H202V182Z" fill="#C3C3C3"/>
<path d="M30 182H35V187H30V182Z" fill="#C3C3C3"/>
<path d="M50 182H55V187H50V182Z" fill="#C3C3C3"/>
<path d="M70 182H76V187H70V182Z" fill="#C3C3C3"/>
<path d="M91 182H96V187H91V182Z" fill="#C3C3C3"/>
<path d="M111 182H116V187H111V182Z" fill="#C3C3C3"/>
<path d="M131 182H136V187H131V182Z" fill="#C3C3C3"/>
<path d="M151 182H156V187H151V182Z" fill="#C3C3C3"/>
<path d="M171 182H176V187H171V182Z" fill="#C3C3C3"/>
<path d="M192 182H197V187H192V182Z" fill="#C3C3C3"/>
<path d="M212 182H217V187H212V182Z" fill="#C3C3C3"/>
<path d="M222 182H227V187H222V182Z" fill="#C3C3C3"/>
<path d="M25 182H30V187H25V182Z" fill="#D9D9D9"/>
<path d="M45 182H50V187H45V182Z" fill="#D9D9D9"/>
<path d="M65 182H70V187H65V182Z" fill="#D9D9D9"/>
<path d="M86 182H91V187H86V182Z" fill="#D9D9D9"/>
<path d="M106 182H111V187H106V182Z" fill="#D9D9D9"/>
<path d="M126 182H131V187H126V182Z" fill="#D9D9D9"/>
<path d="M146 182H151V187H146V182Z" fill="#D9D9D9"/>
<path d="M166 182H171V187H166V182Z" fill="#D9D9D9"/>
<path d="M187 182H192V187H187V182Z" fill="#D9D9D9"/>
<path d="M207 182H212V187H207V182Z" fill="#D9D9D9"/>
<path d="M35 182H40V187H35V182Z" fill="#D9D9D9"/>
<path d="M55 182H60V187H55V182Z" fill="#D9D9D9"/>
<path d="M76 182H81V187H76V182Z" fill="#D9D9D9"/>
<path d="M96 182H101V187H96V182Z" fill="#D9D9D9"/>
<path d="M116 182H121V187H116V182Z" fill="#D9D9D9"/>
<path d="M136 182H141V187H136V182Z" fill="#D9D9D9"/>
<path d="M156 182H161V187H156V182Z" fill="#D9D9D9"/>
<path d="M176 182H182V187H176V182Z" fill="#D9D9D9"/>
<path d="M197 182H202V187H197V182Z" fill="#D9D9D9"/>
<path d="M217 182H222V187H217V182Z" fill="#D9D9D9"/>
<path d="M227 182H232V187H227V182Z" fill="#D9D9D9"/>
<path d="M20 177H25V182H20V177Z" fill="#D9D9D9"/>
<path d="M40 177H45V182H40V177Z" fill="#D9D9D9"/>
<path d="M60 177H65V182H60V177Z" fill="#D9D9D9"/>
<path d="M81 177H86V182H81V177Z" fill="#D9D9D9"/>
<path d="M101 177H106V182H101V177Z" fill="#D9D9D9"/>
<path d="M121 177H126V182H121V177Z" fill="#D9D9D9"/>
<path d="M141 177H146V182H141V177Z" fill="#D9D9D9"/>
<path d="M161 177H166V182H161V177Z" fill="#D9D9D9"/>
<path d="M182 177H187V182H182V177Z" fill="#D9D9D9"/>
<path d="M202 177H207V182H202V177Z" fill="#D9D9D9"/>
<path d="M30 177H35V182H30V177Z" fill="#D9D9D9"/>
<path d="M50 177H55V182H50V177Z" fill="#D9D9D9"/>
<path d="M70 177H76V182H70V177Z" fill="#D9D9D9"/>
<path d="M91 177H96V182H91V177Z" fill="#D9D9D9"/>
<path d="M111 177H116V182H111V177Z" fill="#D9D9D9"/>
<path d="M131 177H136V182H131V177Z" fill="#D9D9D9"/>
<path d="M151 177H156V182H151V177Z" fill="#D9D9D9"/>
<path d="M171 177H176V182H171V177Z" fill="#D9D9D9"/>
<path d="M192 177H197V182H192V177Z" fill="#D9D9D9"/>
<path d="M212 177H217V182H212V177Z" fill="#D9D9D9"/>
<path d="M222 177H227V182H222V177Z" fill="#D9D9D9"/>
<path d="M25 177H30V182H25V177Z" fill="#C3C3C3"/>
<path d="M45 177H50V182H45V177Z" fill="#C3C3C3"/>
<path d="M65 177H70V182H65V177Z" fill="#C3C3C3"/>
<path d="M86 177H91V182H86V177Z" fill="#C3C3C3"/>
<path d="M106 177H111V182H106V177Z" fill="#C3C3C3"/>
<path d="M126 177H131V182H126V177Z" fill="#C3C3C3"/>
<path d="M146 177H151V182H146V177Z" fill="#C3C3C3"/>
<path d="M166 177H171V182H166V177Z" fill="#C3C3C3"/>
<path d="M187 177H192V182H187V177Z" fill="#C3C3C3"/>
<path d="M207 177H212V182H207V177Z" fill="#C3C3C3"/>
<path d="M35 177H40V182H35V177Z" fill="#C3C3C3"/>
<path d="M55 177H60V182H55V177Z" fill="#C3C3C3"/>
<path d="M76 177H81V182H76V177Z" fill="#C3C3C3"/>
<path d="M96 177H101V182H96V177Z" fill="#C3C3C3"/>
<path d="M116 177H121V182H116V177Z" fill="#C3C3C3"/>
<path d="M136 177H141V182H136V177Z" fill="#C3C3C3"/>
<path d="M156 177H161V182H156V177Z" fill="#C3C3C3"/>
<path d="M176 177H182V182H176V177Z" fill="#C3C3C3"/>
<path d="M197 177H202V182H197V177Z" fill="#C3C3C3"/>
<path d="M217 177H222V182H217V177Z" fill="#C3C3C3"/>
<path d="M227 177H232V182H227V177Z" fill="#C3C3C3"/>
<path d="M20 172H25V177H20V172Z" fill="#C3C3C3"/>
<path d="M40 172H45V177H40V172Z" fill="#C3C3C3"/>
<path d="M60 172H65V177H60V172Z" fill="#C3C3C3"/>
<path d="M81 172H86V177H81V172Z" fill="#C3C3C3"/>
<path d="M101 172H106V177H101V172Z" fill="#C3C3C3"/>
<path d="M121 172H126V177H121V172Z" fill="#C3C3C3"/>
<path d="M141 172H146V177H141V172Z" fill="#C3C3C3"/>
<path d="M161 172H166V177H161V172Z" fill="#C3C3C3"/>
<path d="M182 172H187V177H182V172Z" fill="#C3C3C3"/>
<path d="M202 172H207V177H202V172Z" fill="#C3C3C3"/>
<path d="M30 172H35V177H30V172Z" fill="#C3C3C3"/>
<path d="M50 172H55V177H50V172Z" fill="#C3C3C3"/>
<path d="M70 172H76V177H70V172Z" fill="#C3C3C3"/>
<path d="M91 172H96V177H91V172Z" fill="#C3C3C3"/>
<path d="M111 172H116V177H111V172Z" fill="#C3C3C3"/>
<path d="M131 172H136V177H131V172Z" fill="#C3C3C3"/>
<path d="M151 172H156V177H151V172Z" fill="#C3C3C3"/>
<path d="M171 172H176V177H171V172Z" fill="#C3C3C3"/>
<path d="M192 172H197V177H192V172Z" fill="#C3C3C3"/>
<path d="M212 172H217V177H212V172Z" fill="#C3C3C3"/>
<path d="M222 172H227V177H222V172Z" fill="#C3C3C3"/>
<path d="M25 172H30V177H25V172Z" fill="#D9D9D9"/>
<path d="M45 172H50V177H45V172Z" fill="#D9D9D9"/>
<path d="M65 172H70V177H65V172Z" fill="#D9D9D9"/>
<path d="M86 172H91V177H86V172Z" fill="#D9D9D9"/>
<path d="M106 172H111V177H106V172Z" fill="#D9D9D9"/>
<path d="M126 172H131V177H126V172Z" fill="#D9D9D9"/>
<path d="M146 172H151V177H146V172Z" fill="#D9D9D9"/>
<path d="M166 172H171V177H166V172Z" fill="#D9D9D9"/>
<path d="M187 172H192V177H187V172Z" fill="#D9D9D9"/>
<path d="M207 172H212V177H207V172Z" fill="#D9D9D9"/>
<path d="M35 172H40V177H35V172Z" fill="#D9D9D9"/>
<path d="M55 172H60V177H55V172Z" fill="#D9D9D9"/>
<path d="M76 172H81V177H76V172Z" fill="#D9D9D9"/>
<path d="M96 172H101V177H96V172Z" fill="#D9D9D9"/>
<path d="M116 172H121V177H116V172Z" fill="#D9D9D9"/>
<path d="M136 172H141V177H136V172Z" fill="#D9D9D9"/>
<path d="M156 172H161V177H156V172Z" fill="#D9D9D9"/>
<path d="M176 172H182V177H176V172Z" fill="#D9D9D9"/>
<path d="M197 172H202V177H197V172Z" fill="#D9D9D9"/>
<path d="M217 172H222V177H217V172Z" fill="#D9D9D9"/>
<path d="M227 172H232V177H227V172Z" fill="#D9D9D9"/>
<path d="M20 167H25V172H20V167Z" fill="#D9D9D9"/>
<path d="M40 167H45V172H40V167Z" fill="#D9D9D9"/>
<path d="M60 167H65V172H60V167Z" fill="#D9D9D9"/>
<path d="M81 167H86V172H81V167Z" fill="#D9D9D9"/>
<path d="M101 167H106V172H101V167Z" fill="#D9D9D9"/>
<path d="M121 167H126V172H121V167Z" fill="#D9D9D9"/>
<path d="M141 167H146V172H141V167Z" fill="#D9D9D9"/>
<path d="M161 167H166V172H161V167Z" fill="#D9D9D9"/>
<path d="M182 167H187V172H182V167Z" fill="#D9D9D9"/>
<path d="M202 167H207V172H202V167Z" fill="#D9D9D9"/>
<path d="M30 167H35V172H30V167Z" fill="#D9D9D9"/>
<path d="M50 167H55V172H50V167Z" fill="#D9D9D9"/>
<path d="M70 167H76V172H70V167Z" fill="#D9D9D9"/>
<path d="M91 167H96V172H91V167Z" fill="#D9D9D9"/>
<path d="M111 167H116V172H111V167Z" fill="#D9D9D9"/>
<path d="M131 167H136V172H131V167Z" fill="#D9D9D9"/>
<path d="M151 167H156V172H151V167Z" fill="#D9D9D9"/>
<path d="M171 167H176V172H171V167Z" fill="#D9D9D9"/>
<path d="M192 167H197V172H192V167Z" fill="#D9D9D9"/>
<path d="M212 167H217V172H212V167Z" fill="#D9D9D9"/>
<path d="M222 167H227V172H222V167Z" fill="#D9D9D9"/>
<path d="M25 167H30V172H25V167Z" fill="#C3C3C3"/>
<path d="M45 167H50V172H45V167Z" fill="#C3C3C3"/>
<path d="M65 167H70V172H65V167Z" fill="#C3C3C3"/>
<path d="M86 167H91V172H86V167Z" fill="#C3C3C3"/>
<path d="M106 167H111V172H106V167Z" fill="#C3C3C3"/>
<path d="M126 167H131V172H126V167Z" fill="#C3C3C3"/>
<path d="M146 167H151V172H146V167Z" fill="#C3C3C3"/>
<path d="M166 167H171V172H166V167Z" fill="#C3C3C3"/>
<path d="M187 167H192V172H187V167Z" fill="#C3C3C3"/>
<path d="M207 167H212V172H207V167Z" fill="#C3C3C3"/>
<path d="M35 167H40V172H35V167Z" fill="#C3C3C3"/>
<path d="M55 167H60V172H55V167Z" fill="#C3C3C3"/>
<path d="M76 167H81V172H76V167Z" fill="#C3C3C3"/>
<path d="M96 167H101V172H96V167Z" fill="#C3C3C3"/>
<path d="M116 167H121V172H116V167Z" fill="#C3C3C3"/>
<path d="M136 167H141V172H136V167Z" fill="#C3C3C3"/>
<path d="M156 167H161V172H156V167Z" fill="#C3C3C3"/>
<path d="M176 167H182V172H176V167Z" fill="#C3C3C3"/>
<path d="M197 167H202V172H197V167Z" fill="#C3C3C3"/>
<path d="M217 167H222V172H217V167Z" fill="#C3C3C3"/>
<path d="M227 167H232V172H227V167Z" fill="#C3C3C3"/>
<path d="M20 162H25V167H20V162Z" fill="#C3C3C3"/>
<path d="M40 162H45V167H40V162Z" fill="#C3C3C3"/>
<path d="M60 162H65V167H60V162Z" fill="#C3C3C3"/>
<path d="M81 162H86V167H81V162Z" fill="#C3C3C3"/>
<path d="M101 162H106V167H101V162Z" fill="#C3C3C3"/>
<path d="M121 162H126V167H121V162Z" fill="#C3C3C3"/>
<path d="M141 162H146V167H141V162Z" fill="#C3C3C3"/>
<path d="M161 162H166V167H161V162Z" fill="#C3C3C3"/>
<path d="M182 162H187V167H182V162Z" fill="#C3C3C3"/>
<path d="M202 162H207V167H202V162Z" fill="#C3C3C3"/>
<path d="M30 162H35V167H30V162Z" fill="#C3C3C3"/>
<path d="M50 162H55V167H50V162Z" fill="#C3C3C3"/>
<path d="M70 162H76V167H70V162Z" fill="#C3C3C3"/>
<path d="M91 162H96V167H91V162Z" fill="#C3C3C3"/>
<path d="M111 162H116V167H111V162Z" fill="#C3C3C3"/>
<path d="M131 162H136V167H131V162Z" fill="#C3C3C3"/>
<path d="M151 162H156V167H151V162Z" fill="#C3C3C3"/>
<path d="M171 162H176V167H171V162Z" fill="#C3C3C3"/>
<path d="M192 162H197V167H192V162Z" fill="#C3C3C3"/>
<path d="M212 162H217V167H212V162Z" fill="#C3C3C3"/>
<path d="M222 162H227V167H222V162Z" fill="#C3C3C3"/>
<path d="M25 162H30V167H25V162Z" fill="#D9D9D9"/>
<path d="M45 162H50V167H45V162Z" fill="#D9D9D9"/>
<path d="M65 162H70V167H65V162Z" fill="#D9D9D9"/>
<path d="M86 162H91V167H86V162Z" fill="#D9D9D9"/>
<path d="M106 162H111V167H106V162Z" fill="#D9D9D9"/>
<path d="M126 162H131V167H126V162Z" fill="#D9D9D9"/>
<path d="M146 162H151V167H146V162Z" fill="#D9D9D9"/>
<path d="M166 162H171V167H166V162Z" fill="#D9D9D9"/>
<path d="M187 162H192V167H187V162Z" fill="#D9D9D9"/>
<path d="M207 162H212V167H207V162Z" fill="#D9D9D9"/>
<path d="M35 162H40V167H35V162Z" fill="#D9D9D9"/>
<path d="M55 162H60V167H55V162Z" fill="#D9D9D9"/>
<path d="M76 162H81V167H76V162Z" fill="#D9D9D9"/>
<path d="M96 162H101V167H96V162Z" fill="#D9D9D9"/>
<path d="M116 162H121V167H116V162Z" fill="#D9D9D9"/>
<path d="M136 162H141V167H136V162Z" fill="#D9D9D9"/>
<path d="M156 162H161V167H156V162Z" fill="#D9D9D9"/>
<path d="M176 162H182V167H176V162Z" fill="#D9D9D9"/>
<path d="M197 162H202V167H197V162Z" fill="#D9D9D9"/>
<path d="M217 162H222V167H217V162Z" fill="#D9D9D9"/>
<path d="M227 162H232V167H227V162Z" fill="#D9D9D9"/>
<path d="M20 157H25V162H20V157Z" fill="#D9D9D9"/>
<path d="M40 157H45V162H40V157Z" fill="#D9D9D9"/>
<path d="M60 157H65V162H60V157Z" fill="#D9D9D9"/>
<path d="M81 157H86V162H81V157Z" fill="#D9D9D9"/>
<path d="M101 157H106V162H101V157Z" fill="#D9D9D9"/>
<path d="M121 157H126V162H121V157Z" fill="#D9D9D9"/>
<path d="M141 157H146V162H141V157Z" fill="#D9D9D9"/>
<path d="M161 157H166V162H161V157Z" fill="#D9D9D9"/>
<path d="M182 157H187V162H182V157Z" fill="#D9D9D9"/>
<path d="M202 157H207V162H202V157Z" fill="#D9D9D9"/>
<path d="M30 157H35V162H30V157Z" fill="#D9D9D9"/>
<path d="M50 157H55V162H50V157Z" fill="#D9D9D9"/>
<path d="M70 157H76V162H70V157Z" fill="#D9D9D9"/>
<path d="M91 157H96V162H91V157Z" fill="#D9D9D9"/>
<path d="M111 157H116V162H111V157Z" fill="#D9D9D9"/>
<path d="M131 157H136V162H131V157Z" fill="#D9D9D9"/>
<path d="M151 157H156V162H151V157Z" fill="#D9D9D9"/>
<path d="M171 157H176V162H171V157Z" fill="#D9D9D9"/>
<path d="M192 157H197V162H192V157Z" fill="#D9D9D9"/>
<path d="M212 157H217V162H212V157Z" fill="#D9D9D9"/>
<path d="M222 157H227V162H222V157Z" fill="#D9D9D9"/>
<path d="M25 157H30V162H25V157Z" fill="#C3C3C3"/>
<path d="M45 157H50V162H45V157Z" fill="#C3C3C3"/>
<path d="M65 157H70V162H65V157Z" fill="#C3C3C3"/>
<path d="M86 157H91V162H86V157Z" fill="#C3C3C3"/>
<path d="M106 157H111V162H106V157Z" fill="#C3C3C3"/>
<path d="M126 157H131V162H126V157Z" fill="#C3C3C3"/>
<path d="M146 157H151V162H146V157Z" fill="#C3C3C3"/>
<path d="M166 157H171V162H166V157Z" fill="#C3C3C3"/>
<path d="M187 157H192V162H187V157Z" fill="#C3C3C3"/>
<path d="M207 157H212V162H207V157Z" fill="#C3C3C3"/>
<path d="M35 157H40V162H35V157Z" fill="#C3C3C3"/>
<path d="M55 157H60V162H55V157Z" fill="#C3C3C3"/>
<path d="M76 157H81V162H76V157Z" fill="#C3C3C3"/>
<path d="M96 157H101V162H96V157Z" fill="#C3C3C3"/>
<path d="M116 157H121V162H116V157Z" fill="#C3C3C3"/>
<path d="M136 157H141V162H136V157Z" fill="#C3C3C3"/>
<path d="M156 157H161V162H156V157Z" fill="#C3C3C3"/>
<path d="M176 157H182V162H176V157Z" fill="#C3C3C3"/>
<path d="M197 157H202V162H197V157Z" fill="#C3C3C3"/>
<path d="M217 157H222V162H217V157Z" fill="#C3C3C3"/>
<path d="M227 157H232V162H227V157Z" fill="#C3C3C3"/>
<path d="M20 152H25V157H20V152Z" fill="#C3C3C3"/>
<path d="M40 152H45V157H40V152Z" fill="#C3C3C3"/>
<path d="M60 152H65V157H60V152Z" fill="#C3C3C3"/>
<path d="M81 152H86V157H81V152Z" fill="#C3C3C3"/>
<path d="M101 152H106V157H101V152Z" fill="#C3C3C3"/>
<path d="M121 152H126V157H121V152Z" fill="#C3C3C3"/>
<path d="M141 152H146V157H141V152Z" fill="#C3C3C3"/>
<path d="M161 152H166V157H161V152Z" fill="#C3C3C3"/>
<path d="M182 152H187V157H182V152Z" fill="#C3C3C3"/>
<path d="M202 152H207V157H202V152Z" fill="#C3C3C3"/>
<path d="M30 152H35V157H30V152Z" fill="#C3C3C3"/>
<path d="M50 152H55V157H50V152Z" fill="#C3C3C3"/>
<path d="M70 152H76V157H70V152Z" fill="#C3C3C3"/>
<path d="M91 152H96V157H91V152Z" fill="#C3C3C3"/>
<path d="M111 152H116V157H111V152Z" fill="#C3C3C3"/>
<path d="M131 152H136V157H131V152Z" fill="#C3C3C3"/>
<path d="M151 152H156V157H151V152Z" fill="#C3C3C3"/>
<path d="M171 152H176V157H171V152Z" fill="#C3C3C3"/>
<path d="M192 152H197V157H192V152Z" fill="#C3C3C3"/>
<path d="M212 152H217V157H212V152Z" fill="#C3C3C3"/>
<path d="M222 152H227V157H222V152Z" fill="#C3C3C3"/>
<path d="M25 152H30V157H25V152Z" fill="#D9D9D9"/>
<path d="M45 152H50V157H45V152Z" fill="#D9D9D9"/>
<path d="M65 152H70V157H65V152Z" fill="#D9D9D9"/>
<path d="M86 152H91V157H86V152Z" fill="#D9D9D9"/>
<path d="M106 152H111V157H106V152Z" fill="#D9D9D9"/>
<path d="M126 152H131V157H126V152Z" fill="#D9D9D9"/>
<path d="M146 152H151V157H146V152Z" fill="#D9D9D9"/>
<path d="M166 152H171V157H166V152Z" fill="#D9D9D9"/>
<path d="M187 152H192V157H187V152Z" fill="#D9D9D9"/>
<path d="M207 152H212V157H207V152Z" fill="#D9D9D9"/>
<path d="M35 152H40V157H35V152Z" fill="#D9D9D9"/>
<path d="M55 152H60V157H55V152Z" fill="#D9D9D9"/>
<path d="M76 152H81V157H76V152Z" fill="#D9D9D9"/>
<path d="M96 152H101V157H96V152Z" fill="#D9D9D9"/>
<path d="M116 152H121V157H116V152Z" fill="#D9D9D9"/>
<path d="M136 152H141V157H136V152Z" fill="#D9D9D9"/>
<path d="M156 152H161V157H156V152Z" fill="#D9D9D9"/>
<path d="M176 152H182V157H176V152Z" fill="#D9D9D9"/>
<path d="M197 152H202V157H197V152Z" fill="#D9D9D9"/>
<path d="M217 152H222V157H217V152Z" fill="#D9D9D9"/>
<path d="M227 152H232V157H227V152Z" fill="#D9D9D9"/>
<path d="M20 19H232V39H20V19Z" fill="#FBFBFB"/>
<path d="M5 0H53V5H5V0Z" fill="#FBFBFB"/>
<path d="M48 5H53V19H48V5Z" fill="#FBFBFB"/>
<path d="M20 19H53V24H20V19Z" fill="#FBFBFB"/>
<path d="M20 24H25V52H20V24Z" fill="#FBFBFB"/>
<path d="M0 47H20V52H0V47Z" fill="#FBFBFB"/>
<path d="M0 5H6V47H0V5Z" fill="#FBFBFB"/>
<path d="M6 5H20V47H6V5Z" fill="#42637B"/>
<path d="M20 5H48V19H20V5Z" fill="#42637B"/>
<path d="M927 189H950V194H927V189Z" fill="#FBFBFB"/>
<path d="M946 194H950V237H946V194Z" fill="#FBFBFB"/>
<path d="M946 237V242H903V237H946Z" fill="#FBFBFB"/>
<path d="M903 218V242H898V218H903Z" fill="#FBFBFB"/>
<path d="M931 218V222H903V218H931Z" fill="#FBFBFB"/>
<path d="M931 194V218H927V194H931Z" fill="#FBFBFB"/>
<path d="M931 194H946V222H931V194Z" fill="#42637B"/>
<path d="M903 222H946V237H903V222Z" fill="#42637B"/>
<path d="M896 24V2.14186e-06L902 1.87959e-06V24H896Z" fill="#FBFBFB"/>
<path d="M902 4V1.87959e-06L945 0V4L902 4Z" fill="#FBFBFB"/>
<path d="M945 4H950V47H945V4Z" fill="#FBFBFB"/>
<path d="M926 47H950V52H926V47Z" fill="#FBFBFB"/>
<path d="M926 19H930V47H926V19Z" fill="#FBFBFB"/>
<path d="M902 19L926 19V24H902V19Z" fill="#FBFBFB"/>
<path d="M902 19V4L930 4V19L902 19Z" fill="#42637B"/>
<path d="M930 47V4L945 4V47H930Z" fill="#42637B"/>
<path d="M0 189H26.3077V194H0V189Z" fill="#FBFBFB"/>
<path d="M0 194H5.48077V237H0V194Z" fill="#FBFBFB"/>
<path d="M52.6154 237V242H5.48077V237H52.6154Z" fill="#FBFBFB"/>
<path d="M57 242H52.6154V218H57L57 242Z" fill="#FBFBFB"/>
<path d="M26.3077 222V218H52.6154V222H26.3077Z" fill="#FBFBFB"/>
<path d="M20.8269 222L20.8269 194H26.3077V222H20.8269Z" fill="#FBFBFB"/>
<path d="M5.48077 194H20.8269L20.8269 222H5.48077V194Z" fill="#42637B"/>
<path d="M5.48077 222H52.6154V237H5.48077V222Z" fill="#42637B"/>
</svg>
