<svg width="930" height="222" viewBox="0 0 930 222" fill="none" xmlns="http://www.w3.org/2000/svg">
<path d="M0 0H930V222H0V0Z" fill="white"/>
<path d="M221 10H226V212H221V10Z" fill="#616161"/>
<path d="M226 207H920V212H226V207Z" fill="#A2A2A2"/>
<path d="M226 10H920V15H226V10Z" fill="#A2A2A2"/>
<path d="M914 15H920V207H914V15Z" fill="#A2A2A2"/>
<path d="M226 15H914V207H226V15Z" fill="#FBFBFB"/>
<path d="M226 15H914V20H226V15Z" fill="#E3E3E3"/>
<path d="M226 35H914V40H226V35Z" fill="#E3E3E3"/>
<path d="M226 54H914V59H226V54Z" fill="#E3E3E3"/>
<path d="M226 74H914V79H226V74Z" fill="#E3E3E3"/>
<path d="M226 94H914V99H226V94Z" fill="#E3E3E3"/>
<path d="M226 114H914V119H226V114Z" fill="#E3E3E3"/>
<path d="M226 133H914V138H226V133Z" fill="#E3E3E3"/>
<path d="M226 152H914V157H226V152Z" fill="#E3E3E3"/>
<path d="M226 173H914V178H226V173Z" fill="#E3E3E3"/>
<path d="M226 192H914V197H226V192Z" fill="#E3E3E3"/>
<path d="M226 25H914V30H226V25Z" fill="#E3E3E3"/>
<path d="M226 45H914V50H226V45Z" fill="#E3E3E3"/>
<path d="M226 64H914V69H226V64Z" fill="#E3E3E3"/>
<path d="M226 84H914V89H226V84Z" fill="#E3E3E3"/>
<path d="M226 104H914V109H226V104Z" fill="#E3E3E3"/>
<path d="M226 123H914V128H226V123Z" fill="#E3E3E3"/>
<path d="M226 143H914V148H226V143Z" fill="#E3E3E3"/>
<path d="M226 163H914V168H226V163Z" fill="#E3E3E3"/>
<path d="M226 183H914V188H226V183Z" fill="#E3E3E3"/>
<path d="M226 202H914V207H226V202Z" fill="#E3E3E3"/>
<path d="M9 178H221V212H9V178Z" fill="#C3C3C3"/>
<path d="M9 109H221V143H9V109Z" fill="#D3D3D3"/>
<path d="M9 45H221V94H9V45Z" fill="#E3E3E3"/>
<path d="M9 104H14V109H9V104Z" fill="#E3E3E3"/>
<path d="M19 104H24V109H19V104Z" fill="#E3E3E3"/>
<path d="M29 104H34V109H29V104Z" fill="#E3E3E3"/>
<path d="M39 104H44V109H39V104Z" fill="#E3E3E3"/>
<path d="M49 104H54V109H49V104Z" fill="#E3E3E3"/>
<path d="M59 104H65V109H59V104Z" fill="#E3E3E3"/>
<path d="M70 104H75V109H70V104Z" fill="#E3E3E3"/>
<path d="M80 104H85V109H80V104Z" fill="#E3E3E3"/>
<path d="M90 104H95V109H90V104Z" fill="#E3E3E3"/>
<path d="M100 104H105V109H100V104Z" fill="#E3E3E3"/>
<path d="M110 104H115V109H110V104Z" fill="#E3E3E3"/>
<path d="M120 104H125V109H120V104Z" fill="#E3E3E3"/>
<path d="M130 104H135V109H130V104Z" fill="#E3E3E3"/>
<path d="M140 104H145V109H140V104Z" fill="#E3E3E3"/>
<path d="M150 104H155V109H150V104Z" fill="#E3E3E3"/>
<path d="M160 104H165V109H160V104Z" fill="#E3E3E3"/>
<path d="M171 104H176V109H171V104Z" fill="#E3E3E3"/>
<path d="M181 104H186V109H181V104Z" fill="#E3E3E3"/>
<path d="M191 104H196V109H191V104Z" fill="#E3E3E3"/>
<path d="M201 104H206V109H201V104Z" fill="#E3E3E3"/>
<path d="M211 104H216V109H211V104Z" fill="#E3E3E3"/>
<path d="M14 104H19V109H14V104Z" fill="#D3D3D3"/>
<path d="M24 104H29V109H24V104Z" fill="#D3D3D3"/>
<path d="M34 104H39V109H34V104Z" fill="#D3D3D3"/>
<path d="M44 104H49V109H44V104Z" fill="#D3D3D3"/>
<path d="M54 104H59V109H54V104Z" fill="#D3D3D3"/>
<path d="M65 104H70V109H65V104Z" fill="#D3D3D3"/>
<path d="M75 104H80V109H75V104Z" fill="#D3D3D3"/>
<path d="M85 104H90V109H85V104Z" fill="#D3D3D3"/>
<path d="M95 104H100V109H95V104Z" fill="#D3D3D3"/>
<path d="M105 104H110V109H105V104Z" fill="#D3D3D3"/>
<path d="M115 104H120V109H115V104Z" fill="#D3D3D3"/>
<path d="M125 104H130V109H125V104Z" fill="#D3D3D3"/>
<path d="M135 104H140V109H135V104Z" fill="#D3D3D3"/>
<path d="M145 104H150V109H145V104Z" fill="#D3D3D3"/>
<path d="M155 104H160V109H155V104Z" fill="#D3D3D3"/>
<path d="M165 104H171V109H165V104Z" fill="#D3D3D3"/>
<path d="M176 104H181V109H176V104Z" fill="#D3D3D3"/>
<path d="M186 104H191V109H186V104Z" fill="#D3D3D3"/>
<path d="M196 104H201V109H196V104Z" fill="#D3D3D3"/>
<path d="M206 104H211V109H206V104Z" fill="#D3D3D3"/>
<path d="M216 104H221V109H216V104Z" fill="#D3D3D3"/>
<path d="M9 99H14V104H9V99Z" fill="#D3D3D3"/>
<path d="M19 99H24V104H19V99Z" fill="#D3D3D3"/>
<path d="M29 99H34V104H29V99Z" fill="#D3D3D3"/>
<path d="M39 99H44V104H39V99Z" fill="#D3D3D3"/>
<path d="M49 99H54V104H49V99Z" fill="#D3D3D3"/>
<path d="M59 99H65V104H59V99Z" fill="#D3D3D3"/>
<path d="M70 99H75V104H70V99Z" fill="#D3D3D3"/>
<path d="M80 99H85V104H80V99Z" fill="#D3D3D3"/>
<path d="M90 99H95V104H90V99Z" fill="#D3D3D3"/>
<path d="M100 99H105V104H100V99Z" fill="#D3D3D3"/>
<path d="M110 99H115V104H110V99Z" fill="#D3D3D3"/>
<path d="M120 99H125V104H120V99Z" fill="#D3D3D3"/>
<path d="M130 99H135V104H130V99Z" fill="#D3D3D3"/>
<path d="M140 99H145V104H140V99Z" fill="#D3D3D3"/>
<path d="M150 99H155V104H150V99Z" fill="#D3D3D3"/>
<path d="M160 99H165V104H160V99Z" fill="#D3D3D3"/>
<path d="M171 99H176V104H171V99Z" fill="#D3D3D3"/>
<path d="M181 99H186V104H181V99Z" fill="#D3D3D3"/>
<path d="M191 99H196V104H191V99Z" fill="#D3D3D3"/>
<path d="M201 99H206V104H201V99Z" fill="#D3D3D3"/>
<path d="M211 99H216V104H211V99Z" fill="#D3D3D3"/>
<path d="M14 99H19V104H14V99Z" fill="#E3E3E3"/>
<path d="M24 99H29V104H24V99Z" fill="#E3E3E3"/>
<path d="M34 99H39V104H34V99Z" fill="#E3E3E3"/>
<path d="M44 99H49V104H44V99Z" fill="#E3E3E3"/>
<path d="M54 99H59V104H54V99Z" fill="#E3E3E3"/>
<path d="M65 99H70V104H65V99Z" fill="#E3E3E3"/>
<path d="M75 99H80V104H75V99Z" fill="#E3E3E3"/>
<path d="M85 99H90V104H85V99Z" fill="#E3E3E3"/>
<path d="M95 99H100V104H95V99Z" fill="#E3E3E3"/>
<path d="M105 99H110V104H105V99Z" fill="#E3E3E3"/>
<path d="M115 99H120V104H115V99Z" fill="#E3E3E3"/>
<path d="M125 99H130V104H125V99Z" fill="#E3E3E3"/>
<path d="M135 99H140V104H135V99Z" fill="#E3E3E3"/>
<path d="M145 99H150V104H145V99Z" fill="#E3E3E3"/>
<path d="M155 99H160V104H155V99Z" fill="#E3E3E3"/>
<path d="M165 99H171V104H165V99Z" fill="#E3E3E3"/>
<path d="M176 99H181V104H176V99Z" fill="#E3E3E3"/>
<path d="M186 99H191V104H186V99Z" fill="#E3E3E3"/>
<path d="M196 99H201V104H196V99Z" fill="#E3E3E3"/>
<path d="M206 99H211V104H206V99Z" fill="#E3E3E3"/>
<path d="M216 99H221V104H216V99Z" fill="#E3E3E3"/>
<path d="M9 94H14V99H9V94Z" fill="#E3E3E3"/>
<path d="M19 94H24V99H19V94Z" fill="#E3E3E3"/>
<path d="M29 94H34V99H29V94Z" fill="#E3E3E3"/>
<path d="M39 94H44V99H39V94Z" fill="#E3E3E3"/>
<path d="M49 94H54V99H49V94Z" fill="#E3E3E3"/>
<path d="M59 94H65V99H59V94Z" fill="#E3E3E3"/>
<path d="M70 94H75V99H70V94Z" fill="#E3E3E3"/>
<path d="M80 94H85V99H80V94Z" fill="#E3E3E3"/>
<path d="M90 94H95V99H90V94Z" fill="#E3E3E3"/>
<path d="M100 94H105V99H100V94Z" fill="#E3E3E3"/>
<path d="M110 94H115V99H110V94Z" fill="#E3E3E3"/>
<path d="M120 94H125V99H120V94Z" fill="#E3E3E3"/>
<path d="M130 94H135V99H130V94Z" fill="#E3E3E3"/>
<path d="M140 94H145V99H140V94Z" fill="#E3E3E3"/>
<path d="M150 94H155V99H150V94Z" fill="#E3E3E3"/>
<path d="M160 94H165V99H160V94Z" fill="#E3E3E3"/>
<path d="M171 94H176V99H171V94Z" fill="#E3E3E3"/>
<path d="M181 94H186V99H181V94Z" fill="#E3E3E3"/>
<path d="M191 94H196V99H191V94Z" fill="#E3E3E3"/>
<path d="M201 94H206V99H201V94Z" fill="#E3E3E3"/>
<path d="M211 94H216V99H211V94Z" fill="#E3E3E3"/>
<path d="M14 94H19V99H14V94Z" fill="#D3D3D3"/>
<path d="M24 94H29V99H24V94Z" fill="#D3D3D3"/>
<path d="M34 94H39V99H34V94Z" fill="#D3D3D3"/>
<path d="M44 94H49V99H44V94Z" fill="#D3D3D3"/>
<path d="M54 94H59V99H54V94Z" fill="#D3D3D3"/>
<path d="M65 94H70V99H65V94Z" fill="#D3D3D3"/>
<path d="M75 94H80V99H75V94Z" fill="#D3D3D3"/>
<path d="M85 94H90V99H85V94Z" fill="#D3D3D3"/>
<path d="M95 94H100V99H95V94Z" fill="#D3D3D3"/>
<path d="M105 94H110V99H105V94Z" fill="#D3D3D3"/>
<path d="M115 94H120V99H115V94Z" fill="#D3D3D3"/>
<path d="M125 94H130V99H125V94Z" fill="#D3D3D3"/>
<path d="M135 94H140V99H135V94Z" fill="#D3D3D3"/>
<path d="M145 94H150V99H145V94Z" fill="#D3D3D3"/>
<path d="M155 94H160V99H155V94Z" fill="#D3D3D3"/>
<path d="M165 94H171V99H165V94Z" fill="#D3D3D3"/>
<path d="M176 94H181V99H176V94Z" fill="#D3D3D3"/>
<path d="M186 94H191V99H186V94Z" fill="#D3D3D3"/>
<path d="M196 94H201V99H196V94Z" fill="#D3D3D3"/>
<path d="M206 94H211V99H206V94Z" fill="#D3D3D3"/>
<path d="M216 94H221V99H216V94Z" fill="#D3D3D3"/>
<path d="M9 40H14V45H9V40Z" fill="#E3E3E3"/>
<path d="M19 40H24V45H19V40Z" fill="#E3E3E3"/>
<path d="M29 40H34V45H29V40Z" fill="#E3E3E3"/>
<path d="M39 40H44V45H39V40Z" fill="#E3E3E3"/>
<path d="M49 40H54V45H49V40Z" fill="#E3E3E3"/>
<path d="M59 40H65V45H59V40Z" fill="#E3E3E3"/>
<path d="M70 40H75V45H70V40Z" fill="#E3E3E3"/>
<path d="M80 40H85V45H80V40Z" fill="#E3E3E3"/>
<path d="M90 40H95V45H90V40Z" fill="#E3E3E3"/>
<path d="M100 40H105V45H100V40Z" fill="#E3E3E3"/>
<path d="M110 40H115V45H110V40Z" fill="#E3E3E3"/>
<path d="M120 40H125V45H120V40Z" fill="#E3E3E3"/>
<path d="M130 40H135V45H130V40Z" fill="#E3E3E3"/>
<path d="M140 40H145V45H140V40Z" fill="#E3E3E3"/>
<path d="M150 40H155V45H150V40Z" fill="#E3E3E3"/>
<path d="M160 40H165V45H160V40Z" fill="#E3E3E3"/>
<path d="M171 40H176V45H171V40Z" fill="#E3E3E3"/>
<path d="M181 40H186V45H181V40Z" fill="#E3E3E3"/>
<path d="M191 40H196V45H191V40Z" fill="#E3E3E3"/>
<path d="M201 40H206V45H201V40Z" fill="#E3E3E3"/>
<path d="M211 40H216V45H211V40Z" fill="#E3E3E3"/>
<path d="M14 40H19V45H14V40Z" fill="#FBFBFB"/>
<path d="M24 40H29V45H24V40Z" fill="#FBFBFB"/>
<path d="M34 40H39V45H34V40Z" fill="#FBFBFB"/>
<path d="M44 40H49V45H44V40Z" fill="#FBFBFB"/>
<path d="M54 40H59V45H54V40Z" fill="#FBFBFB"/>
<path d="M65 40H70V45H65V40Z" fill="#FBFBFB"/>
<path d="M75 40H80V45H75V40Z" fill="#FBFBFB"/>
<path d="M85 40H90V45H85V40Z" fill="#FBFBFB"/>
<path d="M95 40H100V45H95V40Z" fill="#FBFBFB"/>
<path d="M105 40H110V45H105V40Z" fill="#FBFBFB"/>
<path d="M115 40H120V45H115V40Z" fill="#FBFBFB"/>
<path d="M125 40H130V45H125V40Z" fill="#FBFBFB"/>
<path d="M135 40H140V45H135V40Z" fill="#FBFBFB"/>
<path d="M145 40H150V45H145V40Z" fill="#FBFBFB"/>
<path d="M155 40H160V45H155V40Z" fill="#FBFBFB"/>
<path d="M165 40H171V45H165V40Z" fill="#FBFBFB"/>
<path d="M176 40H181V45H176V40Z" fill="#FBFBFB"/>
<path d="M186 40H191V45H186V40Z" fill="#FBFBFB"/>
<path d="M196 40H201V45H196V40Z" fill="#FBFBFB"/>
<path d="M206 40H211V45H206V40Z" fill="#FBFBFB"/>
<path d="M216 40H221V45H216V40Z" fill="#FBFBFB"/>
<path d="M9 35H14V40H9V35Z" fill="#FBFBFB"/>
<path d="M19 35H24V40H19V35Z" fill="#FBFBFB"/>
<path d="M29 35H34V40H29V35Z" fill="#FBFBFB"/>
<path d="M39 35H44V40H39V35Z" fill="#FBFBFB"/>
<path d="M49 35H54V40H49V35Z" fill="#FBFBFB"/>
<path d="M59 35H65V40H59V35Z" fill="#FBFBFB"/>
<path d="M70 35H75V40H70V35Z" fill="#FBFBFB"/>
<path d="M80 35H85V40H80V35Z" fill="#FBFBFB"/>
<path d="M90 35H95V40H90V35Z" fill="#FBFBFB"/>
<path d="M100 35H105V40H100V35Z" fill="#FBFBFB"/>
<path d="M110 35H115V40H110V35Z" fill="#FBFBFB"/>
<path d="M120 35H125V40H120V35Z" fill="#FBFBFB"/>
<path d="M130 35H135V40H130V35Z" fill="#FBFBFB"/>
<path d="M140 35H145V40H140V35Z" fill="#FBFBFB"/>
<path d="M150 35H155V40H150V35Z" fill="#FBFBFB"/>
<path d="M160 35H165V40H160V35Z" fill="#FBFBFB"/>
<path d="M171 35H176V40H171V35Z" fill="#FBFBFB"/>
<path d="M181 35H186V40H181V35Z" fill="#FBFBFB"/>
<path d="M191 35H196V40H191V35Z" fill="#FBFBFB"/>
<path d="M201 35H206V40H201V35Z" fill="#FBFBFB"/>
<path d="M211 35H216V40H211V35Z" fill="#FBFBFB"/>
<path d="M14 35H19V40H14V35Z" fill="#E3E3E3"/>
<path d="M24 35H29V40H24V35Z" fill="#E3E3E3"/>
<path d="M34 35H39V40H34V35Z" fill="#E3E3E3"/>
<path d="M44 35H49V40H44V35Z" fill="#E3E3E3"/>
<path d="M54 35H59V40H54V35Z" fill="#E3E3E3"/>
<path d="M65 35H70V40H65V35Z" fill="#E3E3E3"/>
<path d="M75 35H80V40H75V35Z" fill="#E3E3E3"/>
<path d="M85 35H90V40H85V35Z" fill="#E3E3E3"/>
<path d="M95 35H100V40H95V35Z" fill="#E3E3E3"/>
<path d="M105 35H110V40H105V35Z" fill="#E3E3E3"/>
<path d="M115 35H120V40H115V35Z" fill="#E3E3E3"/>
<path d="M125 35H130V40H125V35Z" fill="#E3E3E3"/>
<path d="M135 35H140V40H135V35Z" fill="#E3E3E3"/>
<path d="M145 35H150V40H145V35Z" fill="#E3E3E3"/>
<path d="M155 35H160V40H155V35Z" fill="#E3E3E3"/>
<path d="M165 35H171V40H165V35Z" fill="#E3E3E3"/>
<path d="M176 35H181V40H176V35Z" fill="#E3E3E3"/>
<path d="M186 35H191V40H186V35Z" fill="#E3E3E3"/>
<path d="M196 35H201V40H196V35Z" fill="#E3E3E3"/>
<path d="M206 35H211V40H206V35Z" fill="#E3E3E3"/>
<path d="M216 35H221V40H216V35Z" fill="#E3E3E3"/>
<path d="M9 30H14V35H9V30Z" fill="#E3E3E3"/>
<path d="M19 30H24V35H19V30Z" fill="#E3E3E3"/>
<path d="M29 30H34V35H29V30Z" fill="#E3E3E3"/>
<path d="M39 30H44V35H39V30Z" fill="#E3E3E3"/>
<path d="M49 30H54V35H49V30Z" fill="#E3E3E3"/>
<path d="M59 30H65V35H59V30Z" fill="#E3E3E3"/>
<path d="M70 30H75V35H70V30Z" fill="#E3E3E3"/>
<path d="M80 30H85V35H80V30Z" fill="#E3E3E3"/>
<path d="M90 30H95V35H90V30Z" fill="#E3E3E3"/>
<path d="M100 30H105V35H100V30Z" fill="#E3E3E3"/>
<path d="M110 30H115V35H110V30Z" fill="#E3E3E3"/>
<path d="M120 30H125V35H120V30Z" fill="#E3E3E3"/>
<path d="M130 30H135V35H130V30Z" fill="#E3E3E3"/>
<path d="M140 30H145V35H140V30Z" fill="#E3E3E3"/>
<path d="M150 30H155V35H150V30Z" fill="#E3E3E3"/>
<path d="M160 30H165V35H160V30Z" fill="#E3E3E3"/>
<path d="M171 30H176V35H171V30Z" fill="#E3E3E3"/>
<path d="M181 30H186V35H181V30Z" fill="#E3E3E3"/>
<path d="M191 30H196V35H191V30Z" fill="#E3E3E3"/>
<path d="M201 30H206V35H201V30Z" fill="#E3E3E3"/>
<path d="M211 30H216V35H211V30Z" fill="#E3E3E3"/>
<path d="M14 30H19V35H14V30Z" fill="#FBFBFB"/>
<path d="M24 30H29V35H24V30Z" fill="#FBFBFB"/>
<path d="M34 30H39V35H34V30Z" fill="#FBFBFB"/>
<path d="M44 30H49V35H44V30Z" fill="#FBFBFB"/>
<path d="M54 30H59V35H54V30Z" fill="#FBFBFB"/>
<path d="M65 30H70V35H65V30Z" fill="#FBFBFB"/>
<path d="M75 30H80V35H75V30Z" fill="#FBFBFB"/>
<path d="M85 30H90V35H85V30Z" fill="#FBFBFB"/>
<path d="M95 30H100V35H95V30Z" fill="#FBFBFB"/>
<path d="M105 30H110V35H105V30Z" fill="#FBFBFB"/>
<path d="M115 30H120V35H115V30Z" fill="#FBFBFB"/>
<path d="M125 30H130V35H125V30Z" fill="#FBFBFB"/>
<path d="M135 30H140V35H135V30Z" fill="#FBFBFB"/>
<path d="M145 30H150V35H145V30Z" fill="#FBFBFB"/>
<path d="M155 30H160V35H155V30Z" fill="#FBFBFB"/>
<path d="M165 30H171V35H165V30Z" fill="#FBFBFB"/>
<path d="M176 30H181V35H176V30Z" fill="#FBFBFB"/>
<path d="M186 30H191V35H186V30Z" fill="#FBFBFB"/>
<path d="M196 30H201V35H196V30Z" fill="#FBFBFB"/>
<path d="M206 30H211V35H206V30Z" fill="#FBFBFB"/>
<path d="M216 30H221V35H216V30Z" fill="#FBFBFB"/>
<path d="M9 173H14V178H9V173Z" fill="#C3C3C3"/>
<path d="M29 173H34V178H29V173Z" fill="#C3C3C3"/>
<path d="M49 173H54V178H49V173Z" fill="#C3C3C3"/>
<path d="M70 173H75V178H70V173Z" fill="#C3C3C3"/>
<path d="M90 173H95V178H90V173Z" fill="#C3C3C3"/>
<path d="M110 173H115V178H110V173Z" fill="#C3C3C3"/>
<path d="M130 173H135V178H130V173Z" fill="#C3C3C3"/>
<path d="M150 173H155V178H150V173Z" fill="#C3C3C3"/>
<path d="M171 173H176V178H171V173Z" fill="#C3C3C3"/>
<path d="M191 173H196V178H191V173Z" fill="#C3C3C3"/>
<path d="M19 173H24V178H19V173Z" fill="#C3C3C3"/>
<path d="M39 173H44V178H39V173Z" fill="#C3C3C3"/>
<path d="M59 173H65V178H59V173Z" fill="#C3C3C3"/>
<path d="M80 173H85V178H80V173Z" fill="#C3C3C3"/>
<path d="M100 173H105V178H100V173Z" fill="#C3C3C3"/>
<path d="M120 173H125V178H120V173Z" fill="#C3C3C3"/>
<path d="M140 173H145V178H140V173Z" fill="#C3C3C3"/>
<path d="M160 173H165V178H160V173Z" fill="#C3C3C3"/>
<path d="M181 173H186V178H181V173Z" fill="#C3C3C3"/>
<path d="M201 173H206V178H201V173Z" fill="#C3C3C3"/>
<path d="M211 173H216V178H211V173Z" fill="#C3C3C3"/>
<path d="M14 173H19V178H14V173Z" fill="#D9D9D9"/>
<path d="M34 173H39V178H34V173Z" fill="#D9D9D9"/>
<path d="M54 173H59V178H54V173Z" fill="#D9D9D9"/>
<path d="M75 173H80V178H75V173Z" fill="#D9D9D9"/>
<path d="M95 173H100V178H95V173Z" fill="#D9D9D9"/>
<path d="M115 173H120V178H115V173Z" fill="#D9D9D9"/>
<path d="M135 173H140V178H135V173Z" fill="#D9D9D9"/>
<path d="M155 173H160V178H155V173Z" fill="#D9D9D9"/>
<path d="M176 173H181V178H176V173Z" fill="#D9D9D9"/>
<path d="M196 173H201V178H196V173Z" fill="#D9D9D9"/>
<path d="M24 173H29V178H24V173Z" fill="#D9D9D9"/>
<path d="M44 173H49V178H44V173Z" fill="#D9D9D9"/>
<path d="M65 173H70V178H65V173Z" fill="#D9D9D9"/>
<path d="M85 173H90V178H85V173Z" fill="#D9D9D9"/>
<path d="M105 173H110V178H105V173Z" fill="#D9D9D9"/>
<path d="M125 173H130V178H125V173Z" fill="#D9D9D9"/>
<path d="M145 173H150V178H145V173Z" fill="#D9D9D9"/>
<path d="M165 173H171V178H165V173Z" fill="#D9D9D9"/>
<path d="M186 173H191V178H186V173Z" fill="#D9D9D9"/>
<path d="M206 173H211V178H206V173Z" fill="#D9D9D9"/>
<path d="M216 173H221V178H216V173Z" fill="#D9D9D9"/>
<path d="M9 168H14V173H9V168Z" fill="#D9D9D9"/>
<path d="M29 168H34V173H29V168Z" fill="#D9D9D9"/>
<path d="M49 168H54V173H49V168Z" fill="#D9D9D9"/>
<path d="M70 168H75V173H70V168Z" fill="#D9D9D9"/>
<path d="M90 168H95V173H90V168Z" fill="#D9D9D9"/>
<path d="M110 168H115V173H110V168Z" fill="#D9D9D9"/>
<path d="M130 168H135V173H130V168Z" fill="#D9D9D9"/>
<path d="M150 168H155V173H150V168Z" fill="#D9D9D9"/>
<path d="M171 168H176V173H171V168Z" fill="#D9D9D9"/>
<path d="M191 168H196V173H191V168Z" fill="#D9D9D9"/>
<path d="M19 168H24V173H19V168Z" fill="#D9D9D9"/>
<path d="M39 168H44V173H39V168Z" fill="#D9D9D9"/>
<path d="M59 168H65V173H59V168Z" fill="#D9D9D9"/>
<path d="M80 168H85V173H80V168Z" fill="#D9D9D9"/>
<path d="M100 168H105V173H100V168Z" fill="#D9D9D9"/>
<path d="M120 168H125V173H120V168Z" fill="#D9D9D9"/>
<path d="M140 168H145V173H140V168Z" fill="#D9D9D9"/>
<path d="M160 168H165V173H160V168Z" fill="#D9D9D9"/>
<path d="M181 168H186V173H181V168Z" fill="#D9D9D9"/>
<path d="M201 168H206V173H201V168Z" fill="#D9D9D9"/>
<path d="M211 168H216V173H211V168Z" fill="#D9D9D9"/>
<path d="M14 168H19V173H14V168Z" fill="#C3C3C3"/>
<path d="M34 168H39V173H34V168Z" fill="#C3C3C3"/>
<path d="M54 168H59V173H54V168Z" fill="#C3C3C3"/>
<path d="M75 168H80V173H75V168Z" fill="#C3C3C3"/>
<path d="M95 168H100V173H95V168Z" fill="#C3C3C3"/>
<path d="M115 168H120V173H115V168Z" fill="#C3C3C3"/>
<path d="M135 168H140V173H135V168Z" fill="#C3C3C3"/>
<path d="M155 168H160V173H155V168Z" fill="#C3C3C3"/>
<path d="M176 168H181V173H176V168Z" fill="#C3C3C3"/>
<path d="M196 168H201V173H196V168Z" fill="#C3C3C3"/>
<path d="M24 168H29V173H24V168Z" fill="#C3C3C3"/>
<path d="M44 168H49V173H44V168Z" fill="#C3C3C3"/>
<path d="M65 168H70V173H65V168Z" fill="#C3C3C3"/>
<path d="M85 168H90V173H85V168Z" fill="#C3C3C3"/>
<path d="M105 168H110V173H105V168Z" fill="#C3C3C3"/>
<path d="M125 168H130V173H125V168Z" fill="#C3C3C3"/>
<path d="M145 168H150V173H145V168Z" fill="#C3C3C3"/>
<path d="M165 168H171V173H165V168Z" fill="#C3C3C3"/>
<path d="M186 168H191V173H186V168Z" fill="#C3C3C3"/>
<path d="M206 168H211V173H206V168Z" fill="#C3C3C3"/>
<path d="M216 168H221V173H216V168Z" fill="#C3C3C3"/>
<path d="M9 163H14V168H9V163Z" fill="#C3C3C3"/>
<path d="M29 163H34V168H29V163Z" fill="#C3C3C3"/>
<path d="M49 163H54V168H49V163Z" fill="#C3C3C3"/>
<path d="M70 163H75V168H70V163Z" fill="#C3C3C3"/>
<path d="M90 163H95V168H90V163Z" fill="#C3C3C3"/>
<path d="M110 163H115V168H110V163Z" fill="#C3C3C3"/>
<path d="M130 163H135V168H130V163Z" fill="#C3C3C3"/>
<path d="M150 163H155V168H150V163Z" fill="#C3C3C3"/>
<path d="M171 163H176V168H171V163Z" fill="#C3C3C3"/>
<path d="M191 163H196V168H191V163Z" fill="#C3C3C3"/>
<path d="M19 163H24V168H19V163Z" fill="#C3C3C3"/>
<path d="M39 163H44V168H39V163Z" fill="#C3C3C3"/>
<path d="M59 163H65V168H59V163Z" fill="#C3C3C3"/>
<path d="M80 163H85V168H80V163Z" fill="#C3C3C3"/>
<path d="M100 163H105V168H100V163Z" fill="#C3C3C3"/>
<path d="M120 163H125V168H120V163Z" fill="#C3C3C3"/>
<path d="M140 163H145V168H140V163Z" fill="#C3C3C3"/>
<path d="M160 163H165V168H160V163Z" fill="#C3C3C3"/>
<path d="M181 163H186V168H181V163Z" fill="#C3C3C3"/>
<path d="M201 163H206V168H201V163Z" fill="#C3C3C3"/>
<path d="M211 163H216V168H211V163Z" fill="#C3C3C3"/>
<path d="M14 163H19V168H14V163Z" fill="#D9D9D9"/>
<path d="M34 163H39V168H34V163Z" fill="#D9D9D9"/>
<path d="M54 163H59V168H54V163Z" fill="#D9D9D9"/>
<path d="M75 163H80V168H75V163Z" fill="#D9D9D9"/>
<path d="M95 163H100V168H95V163Z" fill="#D9D9D9"/>
<path d="M115 163H120V168H115V163Z" fill="#D9D9D9"/>
<path d="M135 163H140V168H135V163Z" fill="#D9D9D9"/>
<path d="M155 163H160V168H155V163Z" fill="#D9D9D9"/>
<path d="M176 163H181V168H176V163Z" fill="#D9D9D9"/>
<path d="M196 163H201V168H196V163Z" fill="#D9D9D9"/>
<path d="M24 163H29V168H24V163Z" fill="#D9D9D9"/>
<path d="M44 163H49V168H44V163Z" fill="#D9D9D9"/>
<path d="M65 163H70V168H65V163Z" fill="#D9D9D9"/>
<path d="M85 163H90V168H85V163Z" fill="#D9D9D9"/>
<path d="M105 163H110V168H105V163Z" fill="#D9D9D9"/>
<path d="M125 163H130V168H125V163Z" fill="#D9D9D9"/>
<path d="M145 163H150V168H145V163Z" fill="#D9D9D9"/>
<path d="M165 163H171V168H165V163Z" fill="#D9D9D9"/>
<path d="M186 163H191V168H186V163Z" fill="#D9D9D9"/>
<path d="M206 163H211V168H206V163Z" fill="#D9D9D9"/>
<path d="M216 163H221V168H216V163Z" fill="#D9D9D9"/>
<path d="M9 158H14V163H9V158Z" fill="#D9D9D9"/>
<path d="M29 158H34V163H29V158Z" fill="#D9D9D9"/>
<path d="M49 158H54V163H49V158Z" fill="#D9D9D9"/>
<path d="M70 158H75V163H70V158Z" fill="#D9D9D9"/>
<path d="M90 158H95V163H90V158Z" fill="#D9D9D9"/>
<path d="M110 158H115V163H110V158Z" fill="#D9D9D9"/>
<path d="M130 158H135V163H130V158Z" fill="#D9D9D9"/>
<path d="M150 158H155V163H150V158Z" fill="#D9D9D9"/>
<path d="M171 158H176V163H171V158Z" fill="#D9D9D9"/>
<path d="M191 158H196V163H191V158Z" fill="#D9D9D9"/>
<path d="M19 158H24V163H19V158Z" fill="#D9D9D9"/>
<path d="M39 158H44V163H39V158Z" fill="#D9D9D9"/>
<path d="M59 158H65V163H59V158Z" fill="#D9D9D9"/>
<path d="M80 158H85V163H80V158Z" fill="#D9D9D9"/>
<path d="M100 158H105V163H100V158Z" fill="#D9D9D9"/>
<path d="M120 158H125V163H120V158Z" fill="#D9D9D9"/>
<path d="M140 158H145V163H140V158Z" fill="#D9D9D9"/>
<path d="M160 158H165V163H160V158Z" fill="#D9D9D9"/>
<path d="M181 158H186V163H181V158Z" fill="#D9D9D9"/>
<path d="M201 158H206V163H201V158Z" fill="#D9D9D9"/>
<path d="M211 158H216V163H211V158Z" fill="#D9D9D9"/>
<path d="M14 158H19V163H14V158Z" fill="#C3C3C3"/>
<path d="M34 158H39V163H34V158Z" fill="#C3C3C3"/>
<path d="M54 158H59V163H54V158Z" fill="#C3C3C3"/>
<path d="M75 158H80V163H75V158Z" fill="#C3C3C3"/>
<path d="M95 158H100V163H95V158Z" fill="#C3C3C3"/>
<path d="M115 158H120V163H115V158Z" fill="#C3C3C3"/>
<path d="M135 158H140V163H135V158Z" fill="#C3C3C3"/>
<path d="M155 158H160V163H155V158Z" fill="#C3C3C3"/>
<path d="M176 158H181V163H176V158Z" fill="#C3C3C3"/>
<path d="M196 158H201V163H196V158Z" fill="#C3C3C3"/>
<path d="M24 158H29V163H24V158Z" fill="#C3C3C3"/>
<path d="M44 158H49V163H44V158Z" fill="#C3C3C3"/>
<path d="M65 158H70V163H65V158Z" fill="#C3C3C3"/>
<path d="M85 158H90V163H85V158Z" fill="#C3C3C3"/>
<path d="M105 158H110V163H105V158Z" fill="#C3C3C3"/>
<path d="M125 158H130V163H125V158Z" fill="#C3C3C3"/>
<path d="M145 158H150V163H145V158Z" fill="#C3C3C3"/>
<path d="M165 158H171V163H165V158Z" fill="#C3C3C3"/>
<path d="M186 158H191V163H186V158Z" fill="#C3C3C3"/>
<path d="M206 158H211V163H206V158Z" fill="#C3C3C3"/>
<path d="M216 158H221V163H216V158Z" fill="#C3C3C3"/>
<path d="M9 153H14V158H9V153Z" fill="#C3C3C3"/>
<path d="M29 153H34V158H29V153Z" fill="#C3C3C3"/>
<path d="M49 153H54V158H49V153Z" fill="#C3C3C3"/>
<path d="M70 153H75V158H70V153Z" fill="#C3C3C3"/>
<path d="M90 153H95V158H90V153Z" fill="#C3C3C3"/>
<path d="M110 153H115V158H110V153Z" fill="#C3C3C3"/>
<path d="M130 153H135V158H130V153Z" fill="#C3C3C3"/>
<path d="M150 153H155V158H150V153Z" fill="#C3C3C3"/>
<path d="M171 153H176V158H171V153Z" fill="#C3C3C3"/>
<path d="M191 153H196V158H191V153Z" fill="#C3C3C3"/>
<path d="M19 153H24V158H19V153Z" fill="#C3C3C3"/>
<path d="M39 153H44V158H39V153Z" fill="#C3C3C3"/>
<path d="M59 153H65V158H59V153Z" fill="#C3C3C3"/>
<path d="M80 153H85V158H80V153Z" fill="#C3C3C3"/>
<path d="M100 153H105V158H100V153Z" fill="#C3C3C3"/>
<path d="M120 153H125V158H120V153Z" fill="#C3C3C3"/>
<path d="M140 153H145V158H140V153Z" fill="#C3C3C3"/>
<path d="M160 153H165V158H160V153Z" fill="#C3C3C3"/>
<path d="M181 153H186V158H181V153Z" fill="#C3C3C3"/>
<path d="M201 153H206V158H201V153Z" fill="#C3C3C3"/>
<path d="M211 153H216V158H211V153Z" fill="#C3C3C3"/>
<path d="M14 153H19V158H14V153Z" fill="#D9D9D9"/>
<path d="M34 153H39V158H34V153Z" fill="#D9D9D9"/>
<path d="M54 153H59V158H54V153Z" fill="#D9D9D9"/>
<path d="M75 153H80V158H75V153Z" fill="#D9D9D9"/>
<path d="M95 153H100V158H95V153Z" fill="#D9D9D9"/>
<path d="M115 153H120V158H115V153Z" fill="#D9D9D9"/>
<path d="M135 153H140V158H135V153Z" fill="#D9D9D9"/>
<path d="M155 153H160V158H155V153Z" fill="#D9D9D9"/>
<path d="M176 153H181V158H176V153Z" fill="#D9D9D9"/>
<path d="M196 153H201V158H196V153Z" fill="#D9D9D9"/>
<path d="M24 153H29V158H24V153Z" fill="#D9D9D9"/>
<path d="M44 153H49V158H44V153Z" fill="#D9D9D9"/>
<path d="M65 153H70V158H65V153Z" fill="#D9D9D9"/>
<path d="M85 153H90V158H85V153Z" fill="#D9D9D9"/>
<path d="M105 153H110V158H105V153Z" fill="#D9D9D9"/>
<path d="M125 153H130V158H125V153Z" fill="#D9D9D9"/>
<path d="M145 153H150V158H145V153Z" fill="#D9D9D9"/>
<path d="M165 153H171V158H165V153Z" fill="#D9D9D9"/>
<path d="M186 153H191V158H186V153Z" fill="#D9D9D9"/>
<path d="M206 153H211V158H206V153Z" fill="#D9D9D9"/>
<path d="M216 153H221V158H216V153Z" fill="#D9D9D9"/>
<path d="M9 148H14V153H9V148Z" fill="#D9D9D9"/>
<path d="M29 148H34V153H29V148Z" fill="#D9D9D9"/>
<path d="M49 148H54V153H49V148Z" fill="#D9D9D9"/>
<path d="M70 148H75V153H70V148Z" fill="#D9D9D9"/>
<path d="M90 148H95V153H90V148Z" fill="#D9D9D9"/>
<path d="M110 148H115V153H110V148Z" fill="#D9D9D9"/>
<path d="M130 148H135V153H130V148Z" fill="#D9D9D9"/>
<path d="M150 148H155V153H150V148Z" fill="#D9D9D9"/>
<path d="M171 148H176V153H171V148Z" fill="#D9D9D9"/>
<path d="M191 148H196V153H191V148Z" fill="#D9D9D9"/>
<path d="M19 148H24V153H19V148Z" fill="#D9D9D9"/>
<path d="M39 148H44V153H39V148Z" fill="#D9D9D9"/>
<path d="M59 148H65V153H59V148Z" fill="#D9D9D9"/>
<path d="M80 148H85V153H80V148Z" fill="#D9D9D9"/>
<path d="M100 148H105V153H100V148Z" fill="#D9D9D9"/>
<path d="M120 148H125V153H120V148Z" fill="#D9D9D9"/>
<path d="M140 148H145V153H140V148Z" fill="#D9D9D9"/>
<path d="M160 148H165V153H160V148Z" fill="#D9D9D9"/>
<path d="M181 148H186V153H181V148Z" fill="#D9D9D9"/>
<path d="M201 148H206V153H201V148Z" fill="#D9D9D9"/>
<path d="M211 148H216V153H211V148Z" fill="#D9D9D9"/>
<path d="M14 148H19V153H14V148Z" fill="#C3C3C3"/>
<path d="M34 148H39V153H34V148Z" fill="#C3C3C3"/>
<path d="M54 148H59V153H54V148Z" fill="#C3C3C3"/>
<path d="M75 148H80V153H75V148Z" fill="#C3C3C3"/>
<path d="M95 148H100V153H95V148Z" fill="#C3C3C3"/>
<path d="M115 148H120V153H115V148Z" fill="#C3C3C3"/>
<path d="M135 148H140V153H135V148Z" fill="#C3C3C3"/>
<path d="M155 148H160V153H155V148Z" fill="#C3C3C3"/>
<path d="M176 148H181V153H176V148Z" fill="#C3C3C3"/>
<path d="M196 148H201V153H196V148Z" fill="#C3C3C3"/>
<path d="M24 148H29V153H24V148Z" fill="#C3C3C3"/>
<path d="M44 148H49V153H44V148Z" fill="#C3C3C3"/>
<path d="M65 148H70V153H65V148Z" fill="#C3C3C3"/>
<path d="M85 148H90V153H85V148Z" fill="#C3C3C3"/>
<path d="M105 148H110V153H105V148Z" fill="#C3C3C3"/>
<path d="M125 148H130V153H125V148Z" fill="#C3C3C3"/>
<path d="M145 148H150V153H145V148Z" fill="#C3C3C3"/>
<path d="M165 148H171V153H165V148Z" fill="#C3C3C3"/>
<path d="M186 148H191V153H186V148Z" fill="#C3C3C3"/>
<path d="M206 148H211V153H206V148Z" fill="#C3C3C3"/>
<path d="M216 148H221V153H216V148Z" fill="#C3C3C3"/>
<path d="M9 143H14V148H9V143Z" fill="#C3C3C3"/>
<path d="M29 143H34V148H29V143Z" fill="#C3C3C3"/>
<path d="M49 143H54V148H49V143Z" fill="#C3C3C3"/>
<path d="M70 143H75V148H70V143Z" fill="#C3C3C3"/>
<path d="M90 143H95V148H90V143Z" fill="#C3C3C3"/>
<path d="M110 143H115V148H110V143Z" fill="#C3C3C3"/>
<path d="M130 143H135V148H130V143Z" fill="#C3C3C3"/>
<path d="M150 143H155V148H150V143Z" fill="#C3C3C3"/>
<path d="M171 143H176V148H171V143Z" fill="#C3C3C3"/>
<path d="M191 143H196V148H191V143Z" fill="#C3C3C3"/>
<path d="M19 143H24V148H19V143Z" fill="#C3C3C3"/>
<path d="M39 143H44V148H39V143Z" fill="#C3C3C3"/>
<path d="M59 143H65V148H59V143Z" fill="#C3C3C3"/>
<path d="M80 143H85V148H80V143Z" fill="#C3C3C3"/>
<path d="M100 143H105V148H100V143Z" fill="#C3C3C3"/>
<path d="M120 143H125V148H120V143Z" fill="#C3C3C3"/>
<path d="M140 143H145V148H140V143Z" fill="#C3C3C3"/>
<path d="M160 143H165V148H160V143Z" fill="#C3C3C3"/>
<path d="M181 143H186V148H181V143Z" fill="#C3C3C3"/>
<path d="M201 143H206V148H201V143Z" fill="#C3C3C3"/>
<path d="M211 143H216V148H211V143Z" fill="#C3C3C3"/>
<path d="M14 143H19V148H14V143Z" fill="#D9D9D9"/>
<path d="M34 143H39V148H34V143Z" fill="#D9D9D9"/>
<path d="M54 143H59V148H54V143Z" fill="#D9D9D9"/>
<path d="M75 143H80V148H75V143Z" fill="#D9D9D9"/>
<path d="M95 143H100V148H95V143Z" fill="#D9D9D9"/>
<path d="M115 143H120V148H115V143Z" fill="#D9D9D9"/>
<path d="M135 143H140V148H135V143Z" fill="#D9D9D9"/>
<path d="M155 143H160V148H155V143Z" fill="#D9D9D9"/>
<path d="M176 143H181V148H176V143Z" fill="#D9D9D9"/>
<path d="M196 143H201V148H196V143Z" fill="#D9D9D9"/>
<path d="M24 143H29V148H24V143Z" fill="#D9D9D9"/>
<path d="M44 143H49V148H44V143Z" fill="#D9D9D9"/>
<path d="M65 143H70V148H65V143Z" fill="#D9D9D9"/>
<path d="M85 143H90V148H85V143Z" fill="#D9D9D9"/>
<path d="M105 143H110V148H105V143Z" fill="#D9D9D9"/>
<path d="M125 143H130V148H125V143Z" fill="#D9D9D9"/>
<path d="M145 143H150V148H145V143Z" fill="#D9D9D9"/>
<path d="M165 143H171V148H165V143Z" fill="#D9D9D9"/>
<path d="M186 143H191V148H186V143Z" fill="#D9D9D9"/>
<path d="M206 143H211V148H206V143Z" fill="#D9D9D9"/>
<path d="M216 143H221V148H216V143Z" fill="#D9D9D9"/>
<path d="M9 10H221V30H9V10Z" fill="#FBFBFB"/>
</svg>
